<svg width="40" height="40" viewBox="0 0 40 40" fill="none" xmlns="http://www.w3.org/2000/svg">
<path fill-rule="evenodd" clip-rule="evenodd" d="M11.9199 4.00009C11.7718 4.00009 11.6797 4.15945 11.7537 4.28654L14.2494 8.56986C14.3987 8.82604 14.3007 9.13833 14.0496 9.29796C13.8557 9.42121 13.6666 9.56053 13.4817 9.71775C12.3476 10.7383 11.6065 12.1017 11.089 13.4032C10.5706 14.7071 10.3055 15.8462 10.3055 16.7938C10.3055 17.3932 10.7841 17.8667 11.3877 17.8667C11.9913 17.8667 12.4689 17.3932 12.4689 16.7938C12.4689 16.5356 12.5227 16.2109 12.6256 15.7521C12.7284 15.2934 12.8845 14.7414 13.103 14.1917C13.5369 13.1005 14.2009 11.9649 14.9919 11.2584C16.267 10.2655 17.8132 10.2665 18.9535 10.9021L21.5481 10.1667C21.452 10.0874 21.3554 10.0034 21.2589 9.91985C21.0342 9.72533 20.9667 9.36769 21.1159 9.11153L23.9281 4.28652C24.0022 4.15942 23.909 4.00006 23.7609 4.00006H22.1465C21.8136 4.00006 21.5054 4.17571 21.3388 4.46151L18.9168 8.61879V4.53335C18.9168 4.23789 18.6776 4.00002 18.3794 4.00002H17.3025C17.0043 4.00002 16.7641 4.23789 16.7641 4.53335V8.47917C15.9244 7.22535 15.1184 5.8493 14.3231 4.46354C14.1762 4.20761 13.8168 4 13.5196 4L11.9199 4.00009ZM26.4951 9.87742C23.7848 10.4194 21.1806 11.3753 19.0648 11.9795C18.8705 12.0328 18.7328 11.9834 18.6073 11.9035C17.8446 11.3827 16.696 11.3064 15.6773 12.0868C15.4108 12.3355 15.137 12.6832 14.8812 13.0785H15.1494C16.9858 13.0785 18.6337 14.1817 19.3161 15.8691L20.0702 17.7326H20.0713C20.2941 18.2834 20.9119 18.5458 21.4701 18.3253C22.0276 18.1043 22.2919 17.4947 22.0695 16.9441V16.943C21.7291 16.0983 21.3759 15.1774 21.0158 14.442C20.8862 14.1784 20.9957 13.8607 21.2608 13.7305C23.0382 12.8776 24.7039 12.4162 26.6632 11.993C27.2528 11.8764 27.6241 11.3236 27.5066 10.742C27.3831 9.95741 26.8392 9.86243 26.4951 9.87742ZM7.07693 10.9514C6.47547 10.9514 6 11.4218 6 12.0149C6 12.6081 6.47548 13.0784 7.07693 13.0784H10.0637C10.0727 13.0558 10.6864 11.6333 11.1038 10.9513L7.07693 10.9514ZM25.7127 13.3066C24.4766 13.5843 23.3082 14.0045 22.2064 14.5024C22.5075 15.1765 22.8024 15.8862 23.0687 16.5472V16.5483C23.507 17.6348 22.966 18.882 21.8688 19.3161C20.7712 19.7498 19.5107 19.2161 19.0714 18.1296L18.3183 16.266C17.7974 14.978 16.5533 14.1452 15.1496 14.1452H14.3019C14.2339 14.2915 14.1615 14.437 14.1031 14.5838C13.9112 15.0666 13.7697 15.5711 13.6772 15.9838C13.5847 16.3964 13.5457 16.7579 13.5457 16.7941C13.5457 17.9695 12.5732 18.9338 11.3877 18.9338C10.2021 18.9338 9.22961 17.9695 9.22961 16.7941C9.22961 16.2765 9.29498 15.7335 9.41576 15.167C8.27949 16.8574 7.61421 18.8852 7.61421 21.0668C7.61421 23.9834 8.58264 27.6902 11.0953 30.7052C13.608 33.7203 17.6861 36 23.7293 36C25.2798 36 26.4842 35.3529 27.2872 34.3312C27.8571 33.6061 28.2416 32.7108 28.5113 31.7177C28.3641 31.7269 28.2159 31.7333 28.0664 31.7333C24.2188 31.7333 21.0696 28.6127 21.0696 24.8C21.0696 20.9872 24.2189 17.8667 28.0664 17.8667C28.2512 17.8667 28.4341 17.8765 28.6155 17.8906C28.0581 16.1181 27.0428 14.5485 25.7127 13.3066ZM28.0769 18.9338C24.8119 18.9338 22.1538 21.5667 22.1538 24.8004C22.1538 28.0342 24.8119 30.6671 28.0769 30.6671C31.3418 30.6671 34 28.0342 34 24.8004C34 21.5667 31.3418 18.9338 28.0769 18.9338ZM12.4781 20.5338C12.7282 20.543 12.9465 20.7254 12.9892 20.9796C12.9892 20.9796 13.39 23.155 14.5405 25.3339H16.2253C16.5225 25.3339 16.7637 25.5726 16.7637 25.8672C16.7637 26.1617 16.5225 26.4005 16.2253 26.4005H15.1715C15.9054 27.5071 16.8587 28.5175 18.0816 29.1234C18.3474 29.2551 18.4554 29.5756 18.3224 29.839C18.1895 30.1025 17.8657 30.2094 17.5998 30.0775C17.1009 29.8304 16.6438 29.533 16.2253 29.2005V30.1339C16.2253 30.4284 15.9851 30.6672 15.6879 30.6672C15.3906 30.6672 15.1494 30.4284 15.1494 30.1339V28.1818C14.1727 27.0957 13.474 25.8281 12.983 24.6692L12.4192 26.0651C12.3087 26.3381 11.9956 26.471 11.7199 26.3619C11.4443 26.2525 11.3111 25.9425 11.4212 25.6693L12.4297 23.1693C12.0563 21.9903 11.927 21.1548 11.927 21.1548C11.8783 20.8642 12.0766 20.5895 12.3698 20.5412C12.4064 20.5351 12.4423 20.5325 12.4781 20.5338ZM28.0769 21.0671C28.9624 21.0671 29.6923 21.79 29.6923 22.6671V23.2004H30.2307C31.1163 23.2004 31.8461 23.9233 31.8461 24.8004C31.8461 25.6777 31.1163 26.4004 30.2307 26.4004H29.6923V26.9338C29.6923 27.811 28.9624 28.5338 28.0769 28.5338C27.1913 28.5338 26.4615 27.811 26.4615 26.9338V26.4004H25.923C25.0375 26.4004 24.3076 25.6777 24.3076 24.8004C24.3076 23.9233 25.0375 23.2004 25.923 23.2004H26.4615V22.6671C26.4615 21.79 27.1913 21.0671 28.0769 21.0671Z" fill="#2490EB"/>
</svg>
