<svg width="40" height="40" viewBox="0 0 40 40" fill="none" xmlns="http://www.w3.org/2000/svg">
<path fill-rule="evenodd" clip-rule="evenodd" d="M15.1437 14.0493C15.9303 14.9069 17.2592 15.2747 19.6947 15.3268C19.8335 13.4874 20.542 12.0385 21.5905 11.0215C22.7559 9.891 24.3015 9.33333 25.8349 9.33333C27.3681 9.33333 28.9137 9.891 30.0792 11.0215C31.2525 12.1595 32 13.8384 32 16V23.3333C32 25.3882 31.6578 27.5342 30.6223 29.1872C29.5567 30.8884 27.7967 32 25.1621 32C22.4681 32 20.5923 30.4013 18.8772 28.9214L18.8025 28.857C17.0754 27.3665 15.4661 25.9777 13.1779 25.6668C12.0559 25.6753 11.3005 26.0182 10.7732 26.4876C10.2263 26.9743 9.87358 27.6434 9.6534 28.362C9.43365 29.0791 9.35762 29.8081 9.33861 30.3665C9.32917 30.6435 9.33393 30.8734 9.34088 31.0321C9.34435 31.1113 9.34835 31.1724 9.35134 31.2124C9.35284 31.2324 9.35409 31.2471 9.35489 31.2561L9.35573 31.2653L9.3558 31.2661C9.3558 31.2661 9.35575 31.2656 8.69254 31.3333C8.02932 31.4011 8.02926 31.4005 8.02926 31.4005L8.02919 31.3997L8.02899 31.3978L8.02845 31.3922L8.0268 31.3743C8.02547 31.3593 8.02371 31.3384 8.02173 31.312C8.01778 31.2593 8.01293 31.1843 8.00882 31.0903C8.00061 30.9027 7.99527 30.6378 8.00605 30.3211C8.02747 29.6919 8.11317 28.8375 8.37857 27.9713C8.64356 27.1066 9.09945 26.1923 9.88673 25.4916C10.6869 24.7794 11.7789 24.3333 13.2207 24.3333C13.556 24.3333 13.8719 24.3409 14.1755 24.3483C14.7395 24.3619 15.2607 24.3744 15.7837 24.3352C16.5534 24.2775 17.1883 24.1097 17.7129 23.7165C18.717 22.9639 19.5874 21.1671 19.6642 16.6601C17.1849 16.6087 15.3439 16.2401 14.1611 14.9507C13.5187 14.2503 13.1221 13.3339 12.8829 12.2001C12.6446 11.0705 12.554 9.68333 12.554 8H13.8873C13.8873 9.65001 13.9775 10.9295 14.1875 11.9249C14.3967 12.9161 14.7159 13.583 15.1437 14.0493ZM30.6667 21.4937V16C30.6667 14.1616 30.0395 12.8405 29.1509 11.9785C28.2545 11.109 27.0508 10.6667 25.8349 10.6667C24.6189 10.6667 23.4153 11.109 22.5188 11.9785C21.6302 12.8405 21.0031 14.1616 21.0031 16C21.0031 17.8459 20.8842 19.3601 20.6531 20.5969C22.8786 19.3939 24.5659 20.2506 26.1547 21.0574C27.6266 21.8047 29.014 22.5092 30.6667 21.4937Z" fill="#2490EB"/>
</svg>
