<svg width="40" height="40" viewBox="0 0 40 40" fill="none" xmlns="http://www.w3.org/2000/svg">
<path d="M20.5 12.4306C20.5 12.7779 20.2224 13.2778 19.3644 13.7361C18.5418 14.1756 17.3536 14.4703 16 14.4703C14.6465 14.4703 13.4582 14.1756 12.6357 13.7361C11.7776 13.2778 11.5 12.7779 11.5 12.4306C11.5 12.1272 11.7054 11.7099 12.3518 11.2919L11.5483 10C10.6954 10.5518 10 11.378 10 12.4306C10 13.6322 10.8976 14.5346 11.9397 15.0913C13.0173 15.6669 14.4541 16 16 16C17.5459 16 18.9827 15.6669 20.0604 15.0913C21.1024 14.5346 22 13.6322 22 12.4306C22 11.378 21.3047 10.5518 20.4517 10L19.6483 11.2919C20.2947 11.7099 20.5 12.1272 20.5 12.4306Z" fill="#2490EB"/>
<path fill-rule="evenodd" clip-rule="evenodd" d="M6.37292 13.0838C6.37292 15.3029 7.78638 17.2835 9.99886 18.5824C6.62122 20.567 5.08319 24.1874 6.56292 26.7191C8.05867 29.2782 12.0715 29.7558 15.5258 27.7858C18.8727 25.877 20.4673 22.3708 19.2025 19.8268C23.1467 18.9083 26 16.2366 26 13.0838C26 9.17155 21.6063 6 16.1865 6C10.7666 6 6.37292 9.17155 6.37292 13.0838ZM22.2349 16.8888C23.727 15.8116 24.4902 14.4485 24.4902 13.0838C24.4902 11.7192 23.727 10.356 22.2349 9.27893C20.7439 8.20261 18.6103 7.49134 16.1865 7.49134C13.7626 7.49134 11.629 8.20261 10.1381 9.27893C8.64588 10.356 7.8827 11.7192 7.8827 13.0838C7.8827 14.4485 8.64588 15.8116 10.1381 16.8888C11.629 17.9651 13.7626 18.6764 16.1865 18.6764C18.6103 18.6764 20.7439 17.9651 22.2349 16.8888ZM14.3488 20.0437C14.8876 20.1174 15.4419 20.1593 16.0079 20.1665C16.1571 20.305 16.289 20.4663 16.3979 20.6527C16.8838 21.4841 16.707 22.4491 16.2714 23.2393C15.8284 24.0428 15.0615 24.7928 14.0977 25.3426C13.1338 25.8922 12.0928 26.1732 11.1669 26.1504C10.2562 26.128 9.32177 25.7967 8.83583 24.9653C8.41122 24.2388 8.49401 23.404 8.80997 22.6862L10.1945 23.2809C9.99894 23.7251 10.0345 24.0334 10.1433 24.2197C10.2668 24.4308 10.5841 24.6442 11.2046 24.6595C11.8098 24.6744 12.5794 24.4863 13.3428 24.051C14.1061 23.6157 14.6558 23.0513 14.9454 22.5261C15.2422 21.9877 15.2138 21.6095 15.0904 21.3983C14.9815 21.2121 14.7291 21.0276 14.2417 20.9727L14.3488 20.0437Z" fill="#2490EB"/>
<path d="M28.8105 19.8536C30.7053 20.318 32.55 19.6407 32.9307 18.3408C33.3115 17.041 32.0841 15.6107 30.1894 15.1464C28.2947 14.682 26.45 15.3593 26.0693 16.6591C25.6885 17.959 26.9158 19.3892 28.8105 19.8536Z" fill="#2490EB"/>
<path fill-rule="evenodd" clip-rule="evenodd" d="M33.8516 29.0181C33.0357 32.1378 29.0828 33.7633 25.0226 32.6487C20.9624 31.5341 18.3325 28.1016 19.1484 24.9819C19.9643 21.8623 23.9172 20.2368 27.9774 21.3513C32.0376 22.4659 34.6675 25.8984 33.8516 29.0181ZM28.5676 28.1742C29.2012 27.9828 29.478 27.6625 29.5495 27.3889C29.6126 27.1478 29.558 26.8014 29.232 26.3814L30.4241 25.41C30.9397 26.0741 31.2488 26.9212 31.0209 27.7928C30.76 28.7902 29.913 29.3947 28.9984 29.671C28.0691 29.9517 26.9382 29.9464 25.8104 29.6368C24.6826 29.3272 23.7006 28.7525 23.0328 28.0334C22.3756 27.3256 21.9371 26.3682 22.1979 25.3708C22.4259 24.4993 23.1071 23.924 23.8777 23.613L24.436 25.0649C23.9487 25.2615 23.7324 25.5336 23.6693 25.7747C23.5977 26.0483 23.6811 26.4675 24.1365 26.9578C24.5812 27.4367 25.3024 27.8818 26.2046 28.1295C27.1069 28.3771 27.9487 28.3611 28.5676 28.1742Z" fill="#2490EB"/>
</svg>
