<svg xmlns="http://www.w3.org/2000/svg" width="135" height="136" viewBox="0 0 135 136" fill="none">
    <mask id="mask0_24_2283" style="mask-type:luminance" maskUnits="userSpaceOnUse" x="0" y="0" width="135" height="136">
        <path d="M95.562 0.49983L0 39.9378L39.438 135.5L135 96.0618L95.562 0.49983Z" fill="white"/>
    </mask>
    <g mask="url(#mask0_24_2283)">
        <path d="M117.431 53.8189C114.706 49.218 109.277 46.9608 104.093 48.2737L102.898 45.3782C99.6012 37.3894 90.8436 33.3911 83.3789 36.4719C76.1295 39.4638 72.6626 48.2757 75.6437 56.1189L75.7363 56.0808L75.6502 56.1348L88.6036 87.5215C92.7442 97.5555 88.6058 108.799 79.384 112.605C70.1625 116.411 59.2937 111.347 55.1574 101.324L54.0354 98.6059C56.3448 97.6531 58.1226 94.9604 56.1843 90.2637L54.5312 86.258C63.6744 79.4261 67.3497 67.6369 63.2429 57.6858L61.8725 54.3651L58.6871 55.6797L50.0657 34.9787C48.4591 31.1513 44.3537 29.0114 40.296 29.8866C38.4518 27.7276 35.2065 27.4724 33.0473 29.3168C30.8884 31.161 30.6331 34.4064 32.4775 36.5655C34.3217 38.7245 37.5671 38.9797 39.7262 37.1352C40.8823 36.1477 41.5418 34.6991 41.5279 33.1787C43.8079 32.9172 45.9875 34.1901 46.8795 36.3047L55.5018 56.9943L52.3165 58.3088L53.706 61.6758C55.8653 67.2681 54.1379 73.6152 49.4426 77.3418C46.9659 79.4225 43.906 80.6853 40.6829 80.9572C34.7297 81.6188 29.0375 78.3348 26.6305 72.8497L25.241 69.4827L20.463 71.4546L11.9183 50.7499C11.039 48.5934 11.7105 46.115 13.5584 44.6974C15.5461 46.765 18.8335 46.8296 20.901 44.8419C22.9687 42.8541 23.0332 39.5666 21.0455 37.4991C19.0579 35.4317 15.7702 35.3671 13.7028 37.3547C12.5826 38.4319 12.0034 39.954 12.1247 41.5034C8.57682 43.7309 7.14536 48.1877 8.73295 52.0644L17.2777 72.7693L14.0923 74.0837L15.4594 77.3964C19.5708 87.3586 30.4968 93.1258 41.7898 91.5164L43.4429 95.5214C45.3813 100.219 48.5407 100.874 50.8501 99.9203L51.9721 102.639C56.836 114.425 69.7203 120.321 80.6984 115.79C91.6766 111.259 96.6481 97.9817 91.7886 86.2071L78.8674 54.8967C76.532 48.7868 79.1501 41.9506 84.6955 39.6619C90.4038 37.3062 97.141 40.4606 99.7146 46.6976L100.908 49.5882C95.1765 52.9828 93.2824 60.3807 96.6768 66.1119C100.072 71.8431 107.469 73.7372 113.2 70.3426C118.932 66.948 120.826 59.5499 117.431 53.8189ZM37.0218 34.798C36.1423 35.1609 35.1349 34.7421 34.7719 33.8626C34.4089 32.983 34.8277 31.9756 35.7073 31.6126C36.5868 31.2496 37.5943 31.6684 37.9572 32.548C38.3202 33.4276 37.9014 34.435 37.0218 34.798ZM16.5952 39.5001C17.4748 39.137 18.4822 39.5559 18.8452 40.4354C19.2081 41.315 18.7893 42.3224 17.9098 42.6854C17.0302 43.0484 16.0228 42.6296 15.6598 41.75C15.2969 40.8705 15.7156 39.863 16.5952 39.5001ZM18.6448 76.0819L18.5923 75.9542L23.3703 73.9826L23.4452 74.1641C26.4214 81.0376 33.52 85.1782 40.9679 84.3847C44.9042 84.0503 48.641 82.5084 51.6674 79.9693C57.5112 75.2798 59.6275 67.3362 56.8913 60.3612L56.8164 60.1796L60.0017 58.865L60.0543 58.9925C63.7108 67.8525 60.0989 78.4668 51.4612 84.239C49.4329 85.5936 47.2139 86.6397 44.8778 87.3414C44.1096 87.5746 43.3295 87.7669 42.5409 87.9161C32.3481 89.9193 22.3013 84.9421 18.6448 76.0819ZM49.5355 96.7354C48.1021 97.3266 47.0226 95.1627 46.6282 94.207L45.2334 90.8277C45.3675 90.7911 45.5007 90.743 45.635 90.7028C45.8015 90.6548 45.966 90.6017 46.1312 90.55C46.9121 90.3061 47.6902 90.037 48.457 89.7227L48.5366 89.6897C49.3011 89.374 50.0401 89.0153 50.7611 88.6393C50.9144 88.5597 51.078 88.4772 51.2348 88.3918C51.3547 88.3258 51.4833 88.267 51.6026 88.1988L52.9973 91.5789C53.3917 92.5346 54.1526 94.8298 52.7192 95.421L49.5355 96.7354ZM110.336 67.9156C105.937 69.7306 100.901 67.6366 99.0854 63.2387C97.2701 58.8407 99.3645 53.8039 103.763 51.9889C108.16 50.1739 113.197 52.2678 115.012 56.6658C116.821 61.0639 114.729 66.0963 110.336 67.9156Z" fill="#2490EB" fill-opacity="0.2"/>
        <path d="M105.076 55.1741C102.437 56.2632 101.181 59.2851 102.27 61.924C103.359 64.5629 106.381 65.8192 109.02 64.7301C111.659 63.6411 112.915 60.6192 111.826 57.9803C110.737 55.3414 107.715 54.085 105.076 55.1741ZM107.705 61.5448C106.826 61.9078 105.818 61.489 105.455 60.6094C105.092 59.7298 105.511 58.7224 106.391 58.3594C107.27 57.9965 108.278 58.4153 108.641 59.2948C109.004 60.1744 108.585 61.1818 107.705 61.5448Z" fill="#2490EB" fill-opacity="0.2"/>
    </g>
</svg>