<svg width="40" height="40" viewBox="0 0 40 40" fill="none" xmlns="http://www.w3.org/2000/svg">
<path fill-rule="evenodd" clip-rule="evenodd" d="M17.9684 10.9744C17.1414 10.0552 15.9751 9.4473 14.6667 9.34776V7.33333H13.3334V9.42481C11.9347 9.69727 10.7465 10.5583 10.037 11.7397L8.33335 10.7561L7.66669 11.9108L9.50883 12.9744C9.39443 13.3921 9.33335 13.8317 9.33335 14.2857C9.33335 15.6291 9.49507 16.9347 9.80009 18.1842L7.82745 18.7127L8.17255 20.0007L10.1692 19.4657C10.7485 21.2049 11.6116 22.8145 12.7034 24.2395L10.862 26.0809L11.8048 27.0237L13.5602 25.2683C14.5934 26.4111 15.7856 27.4073 17.1017 28.2225L16.0893 29.9759L17.244 30.6426L18.263 28.8777C20.016 29.7747 21.952 30.3651 24 30.5781V32.6667H25.3334V30.6623C25.46 30.6652 25.587 30.6667 25.7143 30.6667C27.2458 30.6667 28.615 29.9715 29.5234 28.8794L31.3094 29.9105L31.9761 28.7559L30.231 27.7483C30.5109 27.1278 30.6667 26.4393 30.6667 25.7143C30.6667 23.8932 29.6838 22.3017 28.2195 21.4413L29.2441 19.6667L28.0894 19L26.9782 20.9247C26.5747 20.8185 26.1511 20.7619 25.7143 20.7619C24.1661 20.7619 22.7448 20.2186 21.6306 19.3123L23.1381 17.8048L22.1952 16.862L20.6878 18.3695C19.7814 17.2553 19.2381 15.8339 19.2381 14.2857C19.2381 13.5005 19.0554 12.758 18.7301 12.0983L20.357 10.4714L19.4142 9.52864L17.9684 10.9744ZM14 14C13.6318 14 13.3334 14.2985 13.3334 14.6667C13.3334 15.0349 13.6318 15.3333 14 15.3333C14.3682 15.3333 14.6667 15.0349 14.6667 14.6667C14.6667 14.2985 14.3682 14 14 14ZM12 14.6667C12 13.5621 12.8954 12.6667 14 12.6667C15.1046 12.6667 16 13.5621 16 14.6667C16 15.7713 15.1046 16.6667 14 16.6667C12.8954 16.6667 12 15.7713 12 14.6667ZM20 23.3333C19.6318 23.3333 19.3334 23.6318 19.3334 24C19.3334 24.3682 19.6318 24.6667 20 24.6667C20.3682 24.6667 20.6667 24.3682 20.6667 24C20.6667 23.6318 20.3682 23.3333 20 23.3333ZM18 24C18 22.8954 18.8954 22 20 22C21.1046 22 22 22.8954 22 24C22 25.1046 21.1046 26 20 26C18.8954 26 18 25.1046 18 24ZM15.3334 21.3333C16.0698 21.3333 16.6667 20.7364 16.6667 20C16.6667 19.2636 16.0698 18.6667 15.3334 18.6667C14.597 18.6667 14 19.2636 14 20C14 20.7364 14.597 21.3333 15.3334 21.3333ZM26.6667 25.3333C26.6667 26.0697 26.0698 26.6667 25.3334 26.6667C24.597 26.6667 24 26.0697 24 25.3333C24 24.5969 24.597 24 25.3334 24C26.0698 24 26.6667 24.5969 26.6667 25.3333Z" fill="#2490EB"/>
</svg>
