<svg width="24" height="24" viewBox="0 0 24 24" fill="none" xmlns="http://www.w3.org/2000/svg">
<path d="M0 10.9072C0 4.88334 4.88334 0 10.9072 0C16.931 0 21.8144 4.88334 21.8144 10.9072C21.8144 16.931 16.931 21.8144 10.9072 21.8144C4.88334 21.8144 0 16.931 0 10.9072ZM10.9072 1.76873C5.86018 1.76873 1.76873 5.86018 1.76873 10.9072C1.76873 15.9542 5.86018 20.0456 10.9072 20.0456C15.9542 20.0456 20.0456 15.9542 20.0456 10.9072C20.0456 5.86018 15.9542 1.76873 10.9072 1.76873Z" fill="#1B3C74"/>
<path d="M17.4875 17.4875C17.8329 17.1422 18.3929 17.1422 18.7382 17.4875L23.741 22.4903C24.0863 22.8357 24.0863 23.3956 23.741 23.741C23.3956 24.0863 22.8357 24.0863 22.4903 23.741L17.4875 18.7382C17.1422 18.3929 17.1422 17.8329 17.4875 17.4875Z" fill="#1B3C74"/>
</svg>
