<svg width="40" height="40" viewBox="0 0 40 40" fill="none" xmlns="http://www.w3.org/2000/svg">
<path fill-rule="evenodd" clip-rule="evenodd" d="M26.3157 9C25.8797 9 25.5263 9.34822 25.5263 9.77778V12.1564C25.3936 12.2026 25.2641 12.2608 25.1396 12.3311L19.9946 15.1155L14.6934 12.3285C14.6217 12.2883 14.5484 12.252 14.4737 12.2198V9.77778C14.4737 9.34822 14.1203 9 13.6843 9C13.2483 9 12.8948 9.34822 12.8948 9.77778V12.1062C12.7023 12.1583 12.515 12.2347 12.3376 12.3356L7.76324 14.9375C7.62648 15.0153 7.49951 15.1054 7.38344 15.206L6.17352 14.5426C5.79254 14.3337 5.31181 14.4687 5.09978 14.844C4.88775 15.2193 5.02472 15.693 5.40571 15.9018L6.61309 16.5638C6.59063 16.6929 6.57905 16.8248 6.57905 16.9582V22.162C6.57905 22.2614 6.58546 22.3599 6.59801 22.457L5.41138 23.0951C5.02867 23.3009 4.88776 23.7734 5.09665 24.1504C5.30555 24.5275 5.78514 24.6663 6.16785 24.4605L7.3089 23.8469C7.44446 23.9749 7.59657 24.088 7.76324 24.1828L12.3376 26.7847C12.515 26.8856 12.7023 26.962 12.8948 27.0141V29.2222C12.8948 29.6518 13.2483 30 13.6843 30C14.1203 30 14.4737 29.6518 14.4737 29.2222V26.9005C14.5506 26.8673 14.626 26.8299 14.6997 26.7882L19.9944 23.8926L25.1315 26.7847C25.1322 26.785 25.1328 26.7854 25.1334 26.7857C25.2599 26.8575 25.3914 26.9169 25.5263 26.9639V29.2222C25.5263 29.6518 25.8797 30 26.3157 30C26.7517 30 27.1052 29.6518 27.1052 29.2222V26.9639C27.2407 26.9167 27.3729 26.8569 27.4999 26.7847L32.0743 24.1828C32.2741 24.0691 32.4531 23.9291 32.6076 23.7688L33.8176 24.4525C34.1959 24.6662 34.6783 24.5373 34.8952 24.1647C35.1121 23.7921 34.9814 23.3168 34.6032 23.1031L33.2516 22.3394C33.2562 22.2807 33.2585 22.2215 33.2585 22.162V16.9582C33.2585 16.8637 33.2527 16.77 33.2413 16.6775L34.6074 15.8945C34.9843 15.6785 35.112 15.2024 34.8928 14.8311C34.6735 14.4598 34.1903 14.3339 33.8134 14.5499L32.5371 15.2815C32.3995 15.1502 32.2445 15.0343 32.0743 14.9375L27.4999 12.3356C27.3729 12.2633 27.2407 12.2036 27.1052 12.1564V9.77778C27.1052 9.34822 26.7517 9 26.3157 9ZM19.2105 22.5422L13.9165 25.4374C13.8185 25.4931 13.7118 25.5265 13.6031 25.5376C13.4401 25.5542 13.2734 25.5208 13.1271 25.4375L8.55271 22.8356C8.41401 22.7567 8.30557 22.6399 8.23762 22.5025C8.18602 22.3981 8.15798 22.2822 8.15798 22.162V16.9582C8.15798 16.8228 8.19364 16.6926 8.2586 16.5783C8.32698 16.458 8.42746 16.3559 8.55271 16.2847L13.1271 13.6828C13.2734 13.5995 13.4401 13.5661 13.6031 13.5827C13.7118 13.5938 13.8186 13.6271 13.9165 13.6828L13.9279 13.6893L19.2105 16.4665V22.5422ZM20.7895 16.4601L25.9211 13.6829C26.0433 13.6134 26.1793 13.5786 26.3157 13.5786C26.4522 13.5786 26.5883 13.6133 26.7105 13.6828L31.2848 16.2847C31.428 16.3661 31.539 16.488 31.6064 16.6313C31.6539 16.7321 31.6796 16.8432 31.6796 16.9582V22.162C31.6796 22.2613 31.6604 22.3576 31.6247 22.4469C31.5602 22.6083 31.4419 22.7463 31.2848 22.8356L26.7105 25.4375C26.5883 25.507 26.4522 25.5417 26.3157 25.5417C26.1793 25.5417 26.0432 25.507 25.921 25.4375L25.918 25.4358L20.7895 22.5486V16.4601Z" fill="#2490EB"/>
<path d="M13.5 6C12.1193 6 11 7.11929 11 8.5C11 9.88071 12.1193 11 13.5 11C14.8807 11 16 9.88071 16 8.5C16 7.11929 14.8807 6 13.5 6Z" fill="#2490EB"/>
<path d="M13.5 29C12.1193 29 11 29.8954 11 31C11 32.1046 12.1193 33 13.5 33C14.8807 33 16 32.1046 16 31C16 29.8954 14.8807 29 13.5 29Z" fill="#2490EB"/>
<path d="M26.5 6C25.1193 6 24 7.11929 24 8.5C24 9.88071 25.1193 11 26.5 11C27.8807 11 29 9.88071 29 8.5C29 7.11929 27.8807 6 26.5 6Z" fill="#2490EB"/>
<path d="M26.5 29C25.1193 29 24 29.8954 24 31C24 32.1046 25.1193 33 26.5 33C27.8807 33 29 32.1046 29 31C29 29.8954 27.8807 29 26.5 29Z" fill="#2490EB"/>
</svg>
