<svg width="40" height="40" viewBox="0 0 40 40" fill="none" xmlns="http://www.w3.org/2000/svg">
<path fill-rule="evenodd" clip-rule="evenodd" d="M13.3676 17.4625C13.3676 13.6729 16.7933 11.2206 20.1667 11.2206C23.54 11.2206 26.9657 13.6729 26.9657 17.4625C26.9657 18.0445 26.941 18.4958 26.8902 18.8438C26.839 19.1949 26.7644 19.4158 26.6814 19.554C26.6057 19.6797 26.5219 19.7401 26.4178 19.7734C26.2985 19.8115 26.1285 19.8213 25.8755 19.7907C25.6246 19.7603 25.3258 19.6949 24.9597 19.6083C24.8802 19.5895 24.7978 19.5697 24.7125 19.5493C24.4116 19.4773 24.0743 19.3965 23.7073 19.3189C22.7593 19.1184 21.5904 18.9335 20.1667 18.9335C18.743 18.9335 17.574 19.1184 16.626 19.3189C16.2591 19.3965 15.923 19.477 15.6221 19.549C15.5365 19.5695 15.4535 19.5894 15.3736 19.6083C15.0076 19.6949 14.7088 19.7603 14.4578 19.7907C14.2049 19.8213 14.0348 19.8115 13.9156 19.7734C13.8114 19.7401 13.7276 19.6797 13.6519 19.554C13.5689 19.4158 13.4943 19.1949 13.4431 18.8438C13.3923 18.4958 13.3676 18.0445 13.3676 17.4625ZM26.6078 17.3039C26.6078 19.7145 25.9976 19.5875 24.1796 19.2089C23.2132 19.0076 21.9054 18.7353 20.1667 18.7353C18.4279 18.7353 17.1201 19.0076 16.1537 19.2089C14.3357 19.5875 13.7255 19.7145 13.7255 17.3039C13.7255 14.1418 17.0046 11.5784 20.1667 11.5784C23.3288 11.5784 26.6078 14.1418 26.6078 17.3039Z" fill="#2490EB"/>
<path fill-rule="evenodd" clip-rule="evenodd" d="M9.25772 9.25772C8 10.5154 8 12.5397 8 16.5882V23.7451C8 27.7936 8 29.8179 9.25772 31.0756C10.5154 32.3333 12.5397 32.3333 16.5882 32.3333H23.7451C27.7936 32.3333 29.8179 32.3333 31.0756 31.0756C32.3333 29.8179 32.3333 27.7936 32.3333 23.7451V16.5882C32.3333 12.5397 32.3333 10.5154 31.0756 9.25772C29.8179 8 27.7936 8 23.7451 8H16.5882C12.5397 8 10.5154 8 9.25772 9.25772ZM30.1863 26.6078C30.1863 26.2126 29.8658 25.8921 29.4706 25.8921C29.0753 25.8921 28.7549 26.2126 28.7549 26.6078C28.7549 27.6336 28.5774 28.1442 28.3749 28.3973C28.2064 28.6079 27.9249 28.7549 27.3235 28.7549C26.9283 28.7549 26.6078 29.0753 26.6078 29.4706C26.6078 29.8658 26.9283 30.1863 27.3235 30.1863C28.1535 30.1863 28.9455 29.9754 29.4927 29.2914C30.0059 28.6499 30.1863 27.7291 30.1863 26.6078ZM20.1667 10.5049C16.5131 10.5049 12.652 13.1716 12.652 17.4625C12.652 18.0599 12.677 18.5501 12.7349 18.9471C12.7924 19.341 12.8856 19.6683 13.0386 19.9228C13.1991 20.1896 13.4197 20.3662 13.6976 20.455C13.9604 20.5391 14.2501 20.5368 14.5438 20.5012C14.8396 20.4653 15.1745 20.3908 15.5384 20.3048C15.6216 20.2851 15.7067 20.2647 15.7938 20.2438C16.0935 20.1721 16.4174 20.0945 16.7741 20.0191C17.6899 19.8254 18.8071 19.6492 20.1667 19.6492C21.5262 19.6492 22.6434 19.8254 23.5592 20.0191C23.9159 20.0945 24.2397 20.172 24.5394 20.2438C24.6265 20.2647 24.7117 20.2851 24.795 20.3048C25.1589 20.3908 25.4937 20.4653 25.7895 20.5012C26.0832 20.5368 26.3729 20.5391 26.6358 20.455C26.9137 20.3662 27.1342 20.1896 27.2947 19.9228C27.4477 19.6683 27.5409 19.341 27.5984 18.9471C27.6563 18.5501 27.6814 18.0599 27.6814 17.4625C27.6814 13.1716 23.8202 10.5049 20.1667 10.5049Z" fill="#2490EB"/>
<path fill-rule="evenodd" clip-rule="evenodd" d="M13.3676 17.4625C13.3676 13.6729 16.7933 11.2206 20.1666 11.2206C23.54 11.2206 26.9656 13.6729 26.9656 17.4625C26.9656 18.0444 26.941 18.4958 26.8902 18.8438C26.8389 19.1949 26.7644 19.4158 26.6813 19.554C26.6057 19.6797 26.5219 19.74 26.4177 19.7734C26.2985 19.8115 26.1284 19.8213 25.8755 19.7907C25.6245 19.7603 25.3257 19.6949 24.9597 19.6083C24.8798 19.5894 24.797 19.5696 24.7114 19.5491C24.4105 19.477 24.0743 19.3965 23.7073 19.3189C22.7593 19.1184 21.5903 18.9335 20.1666 18.9335C18.7429 18.9335 17.574 19.1184 16.626 19.3189C16.259 19.3965 15.9228 19.477 15.6219 19.549C15.5363 19.5696 15.4534 19.5894 15.3736 19.6083C15.0075 19.6949 14.7087 19.7603 14.4578 19.7907C14.2048 19.8213 14.0348 19.8115 13.9155 19.7734C13.8114 19.74 13.7275 19.6797 13.6519 19.554C13.5688 19.4158 13.4943 19.1949 13.4431 18.8438C13.3923 18.4958 13.3676 18.0444 13.3676 17.4625ZM16.2246 13.8C16.0984 13.9076 15.9776 14.0193 15.8627 14.1349L16.3786 14.6508C16.6581 14.9303 16.6581 15.3834 16.3786 15.6629C16.0991 15.9424 15.6459 15.9424 15.3664 15.6629L14.9876 15.2841C14.7571 15.6971 14.5932 16.1352 14.5082 16.5882H15.1568C15.5521 16.5882 15.8725 16.9086 15.8725 17.3039C15.8725 17.6992 15.5521 18.0196 15.1568 18.0196H14.4672C14.4766 18.1276 14.4885 18.2229 14.5026 18.307C14.5429 18.5471 14.5937 18.6458 14.616 18.6781C14.6191 18.6825 14.6206 18.6854 14.6206 18.6854C14.6206 18.6854 14.6244 18.687 14.6343 18.6898C14.679 18.7022 14.7815 18.7146 14.9924 18.6924C15.1992 18.6706 15.4526 18.6228 15.7828 18.5549L16.0032 18.5092C16.2745 18.4527 16.5824 18.3885 16.9172 18.3269C17.6209 18.1975 18.4606 18.0758 19.4511 18.0345L19.4509 18.0196V15.1569C19.4509 14.7616 19.7714 14.4412 20.1666 14.4412C20.5619 14.4412 20.8823 14.7616 20.8823 15.1569V18.0196L20.8822 18.0345C21.8727 18.0758 22.7124 18.1975 23.416 18.3269C23.7508 18.3885 24.0587 18.4527 24.33 18.5092L24.5504 18.5549C24.8807 18.6228 25.1341 18.6706 25.3409 18.6924C25.5517 18.7146 25.6542 18.7022 25.699 18.6898C25.7089 18.687 25.7127 18.6854 25.7127 18.6854L25.7145 18.6822L25.7172 18.6781C25.7395 18.6458 25.7904 18.5471 25.8307 18.307C25.8448 18.2229 25.8567 18.1276 25.8661 18.0196H25.1764C24.7812 18.0196 24.4607 17.6992 24.4607 17.3039C24.4607 16.9086 24.7812 16.5882 25.1764 16.5882H25.8251C25.74 16.1352 25.5761 15.6971 25.3456 15.2841L24.9668 15.6629C24.6873 15.9424 24.2342 15.9424 23.9547 15.6629C23.6752 15.3834 23.6752 14.9303 23.9547 14.6508L24.4706 14.1349C24.3556 14.0193 24.2348 13.9076 24.1086 13.8C23.9512 13.6657 23.7865 13.5389 23.6157 13.4203C23.5922 13.4539 23.5654 13.4859 23.5354 13.5159L22.8198 14.2315C22.5403 14.511 22.0871 14.511 21.8076 14.2315C21.5281 13.9521 21.5281 13.4989 21.8076 13.2194L22.3081 12.719C21.8457 12.5357 21.365 12.4075 20.8823 12.3427V13.0098C20.8823 13.4051 20.5619 13.7255 20.1666 13.7255C19.7714 13.7255 19.4509 13.4051 19.4509 13.0098V12.3427C18.9683 12.4075 18.4875 12.5357 18.0252 12.719L18.5256 13.2194C18.8051 13.4989 18.8051 13.9521 18.5256 14.2315C18.2461 14.511 17.793 14.511 17.5135 14.2315L16.7978 13.5159C16.7678 13.4859 16.7411 13.4539 16.7175 13.4203C16.5468 13.5389 16.3821 13.6657 16.2246 13.8Z" fill="#2490EB"/>
</svg>
