<svg width="40" height="40" viewBox="0 0 40 40" fill="none" xmlns="http://www.w3.org/2000/svg">
<path d="M20 34C20.4888 34 20.9188 33.2825 21.3441 32.5727C21.7323 31.9248 22.1167 31.2834 22.5383 31.2C22.9845 31.1118 23.4695 31.6108 23.9468 32.1018C24.4434 32.6127 24.9316 33.1149 25.3588 32.9378C25.8029 32.7536 25.9267 32.0739 26.0506 31.3935C26.1645 30.7682 26.2785 30.1423 26.6412 29.8995C27.0088 29.6535 27.6276 29.7943 28.2428 29.9344C28.9054 30.0853 29.5638 30.2352 29.8995 29.8995C30.2319 29.5671 29.95 28.8282 29.6663 28.0845C29.3976 27.3801 29.1272 26.6714 29.3759 26.3C29.6213 25.9335 30.3804 25.9008 31.1386 25.8682C31.9475 25.8335 32.7554 25.7987 32.9377 25.3588C33.1153 24.9307 32.5071 24.2923 31.8941 23.6489C31.3079 23.0336 30.7173 22.4138 30.8053 21.9688C30.89 21.5409 31.6418 21.285 32.3947 21.0287C33.1967 20.7557 34 20.4822 34 20C34 19.5093 33.277 19.0246 32.5645 18.5469C31.9194 18.1144 31.2831 17.6877 31.2 17.2678C31.1114 16.8202 31.614 16.3803 32.1065 15.9492C32.6158 15.5034 33.1143 15.067 32.9377 14.6412C32.7554 14.2013 31.9475 14.1666 31.1387 14.1318C30.3804 14.0992 29.6213 14.0665 29.3759 13.7C29.1272 13.3286 29.3976 12.6199 29.6663 11.9155C29.95 11.1719 30.2319 10.4329 29.8995 10.1005C29.5652 9.76622 28.8198 9.98089 28.0719 10.1963C27.3717 10.398 26.6692 10.6003 26.3 10.3531C25.9335 10.1078 25.9008 9.41244 25.8682 8.71984C25.8334 7.98068 25.7988 7.24467 25.3588 7.06223C24.9268 6.88312 24.3159 7.33305 23.7006 7.78619C23.1227 8.21178 22.5409 8.6402 22.1 8.55297C21.6754 8.46899 21.3899 7.87644 21.1042 7.28336C20.7951 6.64198 20.4858 6 20 6C19.5132 6 19.1765 6.64474 18.8409 7.28749C18.532 7.87919 18.2239 8.46919 17.8004 8.55297C17.3587 8.64034 16.7992 8.21038 16.2445 7.7841C15.6558 7.33167 15.0725 6.8834 14.6412 7.06223C14.2011 7.24473 14.1666 7.91375 14.1318 8.58797C14.0992 9.21934 14.0663 9.85527 13.7 10.1005C13.3332 10.346 12.6375 10.2063 11.9418 10.0665C11.1894 9.91534 10.4369 9.76417 10.1005 10.1005C9.76889 10.4321 10.0833 11.1683 10.4001 11.9101C10.7017 12.6163 11.0055 13.3277 10.7563 13.7C10.5109 14.0666 9.72061 14.0992 8.93029 14.1318C8.08749 14.1666 7.2446 14.2014 7.06223 14.6412C6.88479 15.0691 7.38918 15.5886 7.90104 16.1159C8.39114 16.6207 8.88809 17.1326 8.8 17.5778C8.71638 18.0006 8.07197 18.3592 7.42245 18.7207C6.71426 19.1148 6 19.5123 6 20C6 20.4849 6.7714 20.8297 7.53847 21.1725C8.25046 21.4907 8.95871 21.8073 9.04286 22.2326C9.13102 22.6783 8.57492 23.2361 8.02499 23.7877C7.45161 24.3629 6.88494 24.9313 7.06223 25.3588C7.24464 25.7987 8.03865 25.8335 8.83405 25.8682C9.57965 25.9008 10.3265 25.9335 10.5718 26.3C10.8202 26.671 10.563 27.3785 10.3073 28.0822C10.0367 28.8267 9.76774 29.5668 10.1005 29.8995C10.4338 30.2328 11.1758 29.984 11.9215 29.7338C12.6239 29.4982 13.3296 29.2615 13.7 29.5094C14.0665 29.7548 14.0992 30.4825 14.1318 31.2084C14.1666 31.9829 14.2013 32.7554 14.6412 32.9378C15.0706 33.1158 15.6506 32.6075 16.2366 32.0939C16.7939 31.6054 17.3566 31.1122 17.8004 31.2C18.2251 31.284 18.5336 31.9341 18.8434 32.5866C19.1782 33.2918 19.5144 34 20 34ZM23.3333 17.3333C25.1743 17.3333 26.6667 18.8257 26.6667 20.6667C26.6667 22.5077 25.1742 24 23.3333 24C21.4924 24 20 22.5077 20 20.6667C20 18.8257 21.4924 17.3333 23.3333 17.3333ZM16.6667 19.6667C16.6667 20.5871 15.9205 21.3333 15 21.3333C14.0795 21.3333 13.3333 20.5871 13.3333 19.6667C13.3333 18.7462 14.0795 18 15 18C15.9205 18 16.6667 18.7462 16.6667 19.6667Z" fill="#2490EB"/>
</svg>
