<svg width="24" height="24" viewBox="0 0 24 24" fill="none" xmlns="http://www.w3.org/2000/svg">
<path d="M8.03914 8.6132C8.41413 9.01167 8.97663 9.0585 9.44537 8.80066C9.99521 8.3059 11.0628 7.89836 12 7.89836C12.6915 7.89836 13.3477 8.07411 13.9219 8.37879C13.9219 8.22465 14.126 7.6356 14.5664 7.19521C14.8476 6.92572 15.1875 6.72651 15.5625 6.621C15.0373 6.2769 14.4546 6.00796 13.8351 5.82456C14.1488 5.42589 14.3437 4.8904 14.3437 4.34372C14.3437 3.04929 13.2944 2 12 2C10.7056 2 9.65631 3.04929 9.65631 4.34372C9.65631 4.89082 9.8515 5.42667 10.1657 5.8255C9.3642 6.06932 8.71405 6.38139 8.08597 6.92568C7.56132 7.40477 7.60519 8.17926 8.03914 8.6132Z" fill="#2490EB"/>
<path d="M5.82552 13.8343C6.1109 14.7723 6.46594 15.3836 6.9257 15.914C7.40687 16.441 8.18175 16.3922 8.61319 15.9609C9.01166 15.5859 9.0585 15.0233 8.80073 14.5547C8.25678 13.9503 7.89838 12.8508 7.89838 12.0234C7.93972 11.701 7.86534 11.0381 8.37881 10.0899C8.07011 9.98674 7.6878 9.92623 7.19531 9.43362C6.92574 9.15237 6.72652 8.8125 6.62102 8.4375C6.27691 8.96269 6.00805 9.54534 5.82465 10.165C5.42599 9.85119 4.92954 9.65628 4.38279 9.65628C3.08839 9.65628 2 10.7056 2 12C2 13.2944 3.08839 14.3437 4.38279 14.3437C4.9299 14.3437 5.42669 14.1485 5.82552 13.8343Z" fill="#2490EB"/>
<path d="M13.8343 18.1745C14.8351 17.87 15.4359 17.4886 15.9141 17.0742C16.44 16.5941 16.3935 15.8192 15.9609 15.3868C15.5741 14.9883 15 14.9415 14.5312 15.211C13.866 15.6296 13.299 16.1016 12.0234 16.1016C11.3265 16.1016 10.6756 15.9381 10.0781 15.6211C10.0781 15.7752 9.87404 16.3642 9.43357 16.8047C9.15232 17.0741 8.81253 17.2735 8.43753 17.3789C8.96272 17.723 9.54545 17.9919 10.165 18.1753C9.85119 18.574 9.65627 19.0705 9.65627 19.6172C9.65627 20.9116 10.7056 22 12 22C13.2944 22 14.3437 20.9116 14.3437 19.6172C14.3437 19.07 14.1486 18.5733 13.8343 18.1745Z" fill="#2490EB"/>
<path d="M19.6172 9.65628C19.07 9.65628 18.5733 9.85148 18.1744 10.1657C17.9434 9.40624 17.596 8.68813 17.0743 8.08595C16.5938 7.55982 15.8192 7.60666 15.3868 8.03912C14.9883 8.41411 14.9415 8.97661 15.1992 9.44535C15.7436 10.05 16.1015 11.1565 16.1015 11.9766V12C16.1015 12.6914 15.9257 13.336 15.6095 13.9101C16.0547 14.0039 16.4766 14.2265 16.8047 14.5664C17.0743 14.8476 17.2734 15.1874 17.3789 15.5624C17.7231 15.0373 17.9919 14.4545 18.1754 13.8349C18.5739 14.1488 19.0704 14.3437 19.6172 14.3437C20.9116 14.3437 22 13.2944 22 12C22 10.7056 20.9116 9.65628 19.6172 9.65628Z" fill="#2490EB"/>
</svg>
