<svg xmlns="http://www.w3.org/2000/svg" width="22" height="22" viewBox="0 0 22 22" fill="none">
    <path fill-rule="evenodd" clip-rule="evenodd" d="M0.25 11C0.25 5.06294 5.06294 0.25 11 0.25C16.9371 0.25 21.75 5.06294 21.75 11C21.75 16.9371 16.9371 21.75 11 21.75C5.06294 21.75 0.25 16.9371 0.25 11ZM11 1.75C5.89136 1.75 1.75 5.89136 1.75 11C1.75 16.1086 5.89136 20.25 11 20.25C16.1086 20.25 20.25 16.1086 20.25 11C20.25 5.89136 16.1086 1.75 11 1.75Z" fill="white"/>
    <path fill-rule="evenodd" clip-rule="evenodd" d="M11.0041 4.25C11.4183 4.25004 11.7541 4.58586 11.754 5.00007L11.7534 10.6938L15.7734 14.7138C16.0663 15.0067 16.0663 15.4815 15.7734 15.7744C15.4806 16.0673 15.0057 16.0673 14.7128 15.7744L10.4731 11.5347C10.3324 11.3941 10.2534 11.2033 10.2534 11.0043L10.254 4.99993C10.2541 4.58571 10.5899 4.24996 11.0041 4.25Z" fill="white"/>
</svg>