<svg width="40" height="40" viewBox="0 0 40 40" fill="none" xmlns="http://www.w3.org/2000/svg">
<path fill-rule="evenodd" clip-rule="evenodd" d="M18.092 8.87323C17.9241 8.78274 17.7867 8.76516 17.6169 8.82153C17.5839 8.8325 17.5538 8.84436 17.5261 8.85726L17.5233 8.85952L17.5116 8.86589L17.4628 8.89258C17.4593 8.89444 17.4558 8.89637 17.452 8.89847C17.3376 8.97444 17.2798 9.08258 17.2413 9.25032C17.1724 9.54944 17.2003 9.95403 17.2776 10.427C17.3635 10.953 17.6527 11.6998 18.064 12.198C18.2653 12.4418 18.4512 12.5721 18.599 12.6256C18.7183 12.6688 18.8598 12.6821 19.0722 12.5859C19.3694 12.4511 19.579 12.1213 19.4927 11.3719C19.4085 10.6408 19.0549 9.86694 18.7376 9.46936C18.5088 9.18258 18.2906 8.98024 18.092 8.87323ZM16.5119 7.3692C16.6667 7.27542 16.8403 7.19476 17.0342 7.13031C18.5459 6.62789 19.6303 7.69366 20.1685 8.3679C20.6973 9.03032 21.1779 10.1173 21.2993 11.1711C21.3811 11.8816 21.3063 12.7537 20.8084 13.432C22.2503 13.4001 23.4159 13.5407 24.5295 13.6773L24.5687 13.6821C25.7795 13.8307 26.9288 13.9716 28.4025 13.9184C29.0833 13.8938 29.6628 13.7623 30.2973 13.6185C30.4713 13.579 30.6495 13.5386 30.8351 13.4992C31.6637 13.3232 32.602 13.1823 33.6533 13.4818C34.0094 13.5832 34.3309 13.7662 34.5748 14.0487C34.817 14.3294 34.9345 14.6527 34.9783 14.9591C35.0607 15.5357 34.8946 16.1353 34.7113 16.6081C34.3333 17.5825 33.6694 18.5386 33.4287 18.8672C32.5968 20.002 31.6192 20.6464 30.5627 20.9803C29.5361 21.3048 28.4828 21.3198 27.5339 21.2876C27.2533 21.2781 26.9863 21.265 26.7288 21.2524C26.0683 21.22 25.4715 21.1908 24.874 21.2328C24.6163 21.251 24.3717 21.2822 24.1385 21.3308C24.2071 21.3486 24.2757 21.3677 24.3442 21.3882C25.9332 21.8633 27.3284 23.0374 28.6342 24.5764C28.8321 24.7721 28.9884 24.9822 29.1057 25.2282C29.2248 25.4782 29.2855 25.7282 29.3294 25.9585C29.4539 26.6109 29.2618 27.2627 28.9856 27.7936C28.7025 28.338 28.2839 28.8494 27.8084 29.2616C27.3363 29.671 26.763 30.0214 26.1497 30.1886C25.5274 30.3583 24.7986 30.3515 24.1519 29.9311C23.8082 29.7075 23.6013 29.3529 23.51 29.184C23.4709 29.1116 23.4378 29.0439 23.4113 28.9861C22.9455 28.5336 22.6503 28.3128 22.4059 28.2048C22.2389 28.131 22.0606 28.0942 21.7808 28.1299C21.7321 28.1757 21.6754 28.2285 21.6118 28.2872C21.3802 28.5006 21.0533 28.7932 20.6713 29.111C19.9258 29.7314 18.9019 30.5058 17.943 30.94C16.008 31.8164 14.0468 32.2065 12.1732 31.8924C10.282 31.5753 8.58042 30.557 7.15872 28.7992C3.59116 24.3883 4.88857 18.0648 7.84303 14.0518C9.1125 12.3274 11.3575 10.6288 13.1993 9.39637C14.1353 8.77008 14.9954 8.24581 15.6217 7.87798C15.9353 7.69389 16.1908 7.54855 16.369 7.44876C16.4242 7.4178 16.4721 7.39121 16.5119 7.3692ZM20.7012 26.6704L20.887 26.4876L21.1438 26.4306C21.8511 26.2734 22.4982 26.2876 23.1521 26.5766C23.2475 26.6188 23.3411 26.6661 23.4333 26.7179C23.5891 26.3804 23.822 26.0587 24.0634 25.7825C24.4021 25.395 24.8275 25.0175 25.2841 24.7136C25.4803 24.5829 25.6928 24.4589 25.9159 24.3528C25.1919 23.7158 24.4978 23.3005 23.8146 23.0961C22.7753 22.7854 21.6153 22.9214 20.1748 23.8141L20.1653 23.8199L16.0401 26.2395L15.9291 26.272L15.9253 26.2731L15.9133 26.2765L15.8731 26.2878C15.8393 26.2971 15.7917 26.3099 15.7333 26.3249C15.6171 26.3546 15.4547 26.3936 15.2686 26.4307C14.9219 26.4998 14.3983 26.5827 13.9331 26.5405C13.3546 26.4881 12.8082 26.3755 12.2939 26.128C11.7724 25.877 11.3381 25.5136 10.9442 25.0325C10.1432 24.054 10.053 23.1559 10.0347 22.1321C10.0173 21.1569 10.2315 20.3661 10.6395 19.642C11.0302 18.9486 11.5852 18.3442 12.174 17.7324C13.3472 16.5134 15.1888 15.1591 16.6253 14.1732C16.6757 14.1351 16.7279 14.0996 16.7813 14.0665C16.9057 13.9817 17.0271 13.8995 17.1449 13.8204C16.9592 13.6666 16.795 13.496 16.6517 13.3223C16.0053 12.5392 15.6092 11.4861 15.4824 10.7097C15.4532 10.5309 15.4237 10.3265 15.4048 10.1077C15.0358 10.3385 14.6369 10.5949 14.2231 10.8719C12.3947 12.0953 10.3849 13.6465 9.31642 15.0978C6.62267 18.7568 5.71967 24.1493 8.58242 27.6887C9.76383 29.1495 11.0862 29.8989 12.4792 30.1324C13.8899 30.3689 15.473 30.0925 17.1817 29.3187C17.9038 28.9917 18.771 28.352 19.4961 27.7487C19.8495 27.4547 20.153 27.183 20.3678 26.985C20.4751 26.8862 20.5598 26.8062 20.617 26.7516C20.6457 26.7243 20.6673 26.7033 20.6816 26.6895L20.6972 26.6744L20.7012 26.6704ZM25.0656 28.2455C25.0793 28.2754 25.0962 28.3105 25.1157 28.3464C25.1423 28.3957 25.1671 28.4345 25.1867 28.4604C25.2778 28.5077 25.4219 28.5341 25.6633 28.4683C25.9429 28.392 26.2787 28.2062 26.6051 27.9232C26.9282 27.6431 27.1978 27.3057 27.3665 26.9815C27.5422 26.6438 27.5653 26.407 27.5424 26.2874C27.5092 26.1132 27.4825 26.0344 27.4591 25.9853C27.441 25.9474 27.4118 25.8989 27.3293 25.82C27.3229 25.814 27.3207 25.812 27.3066 25.8088C27.285 25.8038 27.2305 25.7973 27.132 25.8143C26.9238 25.8504 26.6332 25.9725 26.3042 26.1915C25.9838 26.4047 25.6788 26.6757 25.443 26.9453C25.1925 27.232 25.083 27.4453 25.0584 27.5345C25.0386 27.6066 25.0281 27.7772 25.0424 28.0009C25.0485 28.097 25.0578 28.1832 25.0656 28.2455Z" fill="#2490EB"/>
</svg>
