<svg width="40" height="40" viewBox="0 0 40 40" fill="none" xmlns="http://www.w3.org/2000/svg">
<path d="M9.14524 32.79C9.51679 32.4783 9.55786 31.933 9.23688 31.5721C7.56497 29.6919 6.44599 27.4085 5.99781 24.9625C5.54963 22.5164 5.78886 19.9981 6.69029 17.673C7.59173 15.3479 9.12195 13.3019 11.1199 11.7507L11.1431 11.7327C11.2667 11.8894 11.3903 12.0435 11.51 12.1927C11.613 12.3209 11.7131 12.4458 11.808 12.5657C12.1802 13.0362 12.4819 13.4445 12.6834 13.8164C12.8865 14.1914 12.9383 14.4423 12.9218 14.6127C12.9087 14.7472 12.8438 14.9413 12.5218 15.1987L11.8575 15.7295C11.3337 16.1481 11.0037 16.6792 10.9131 17.2623C10.823 17.8407 10.9803 18.3985 11.2965 18.8487C11.9318 19.7532 13.1751 20.2107 14.5028 19.867C14.621 19.8365 14.7067 19.8182 14.7684 19.8074C14.8043 19.8639 14.8488 19.9396 14.9128 20.0496L15.4227 21.1478L12.5396 22.0643C11.6065 22.3609 11.0976 23.3362 11.4029 24.2426C11.7083 25.149 12.7123 25.6433 13.6455 25.3467L15.1846 24.8574L16.5202 27.8304C16.79 28.4311 17.3867 28.8317 18.0606 28.8645C20.7955 28.9975 22.9099 28.024 24.2422 26.6437C24.8955 25.9667 25.3658 25.1852 25.6127 24.3899C25.851 23.6218 25.9211 22.694 25.5447 21.838C25.2273 21.1161 24.4486 20.693 23.6492 20.8081L22.3335 20.9974L21.6883 19.0765C21.3839 18.1697 20.3803 17.6744 19.4469 17.9702C18.5135 18.266 18.0036 19.2408 18.3081 20.1475L19.4188 23.4549C19.6734 24.2132 20.4262 24.6978 21.2337 24.6421C20.7722 24.98 20.1358 25.268 19.2972 25.3767L17.7971 22.0373C17.7683 21.9733 17.736 21.9117 17.7004 21.8528L16.5003 19.2685L16.4633 19.2047C16.3761 19.0544 16.2763 18.8824 16.1711 18.7379C16.0528 18.5755 15.8794 18.3773 15.6144 18.2377C15.0787 17.9556 14.4904 18.0831 14.0451 18.1984C13.3734 18.3723 12.9341 18.1162 12.7651 17.8755C12.6791 17.7532 12.6537 17.6304 12.6708 17.5202C12.6873 17.4148 12.7541 17.2492 12.987 17.0631L13.6512 16.5323C14.2586 16.0469 14.6253 15.4585 14.6916 14.7747C14.7545 14.1268 14.5334 13.5233 14.2567 13.0124C13.9783 12.4982 13.5935 11.9886 13.2177 11.5136C13.1069 11.3735 12.9971 11.2367 12.8888 11.1016L12.8882 11.1009C12.7917 10.9807 12.6961 10.8614 12.6021 10.743C14.2585 9.76303 16.1094 9.11922 18.0429 8.85829C20.5763 8.5164 23.1578 8.8445 25.5154 9.80801C27.873 10.7716 29.9195 12.3348 31.4394 14.3332C32.9591 16.3315 33.896 18.691 34.1512 21.1632C34.4065 23.6353 33.9706 26.1285 32.8897 28.3803C32.6822 28.8124 32.8746 29.3262 33.3196 29.5277C33.7645 29.7292 34.2934 29.5423 34.5009 29.1101C35.7169 26.5768 36.2073 23.772 35.9201 20.9909C35.6329 18.2097 34.579 15.5552 32.8692 13.3071C31.1594 11.0589 28.8572 9.30024 26.2049 8.21629C23.5526 7.13234 20.6484 6.76323 17.7983 7.14786C14.9482 7.53248 12.2576 8.65659 10.0099 10.4018C7.76222 12.147 6.04068 14.4486 5.02658 17.0644C4.01247 19.6802 3.74334 22.5132 4.24754 25.265C4.75174 28.0169 6.0106 30.5857 7.89155 32.701C8.21244 33.0618 8.77377 33.1017 9.14524 32.79Z" fill="#2490EB"/>
<path d="M29.7266 18.9233C28.8559 20.5359 26.8043 21.1577 25.1441 20.312C23.4839 19.4662 22.8438 17.4733 23.7145 15.8607C24.5851 14.2481 26.6367 13.6263 28.297 14.4721C29.9571 15.3177 30.5972 17.3106 29.7266 18.9233Z" fill="#2490EB"/>
</svg>
