<svg xmlns="http://www.w3.org/2000/svg" width="66" height="78" viewBox="0 0 66 78" fill="none">
    <g clip-path="url(#clip0_34_3269)">
        <path d="M35.434 78C32.4968 78 31.0281 78 28.0909 76.5055C23.685 75.0116 20.7476 70.5287 19.279 67.5404C17.8103 63.0577 17.8103 58.575 19.279 54.0923L33.9653 19.7251C38.3712 10.7598 47.183 7.77118 55.9948 10.7596C60.4007 12.2539 63.338 16.7366 64.8067 19.7251C66.2753 24.2078 66.2753 28.6904 64.8067 33.1731L50.1204 67.5404C48.6517 73.5171 42.7772 78 35.434 78ZM51.589 12.2539C45.7144 12.2539 41.3085 15.2424 38.3713 21.2194L23.6849 55.5866C22.2162 58.575 22.2162 63.0578 23.6849 66.0462C25.1535 69.0347 28.0908 72.0233 31.0281 73.5171C38.3713 76.5055 45.7144 73.5171 50.1204 66.0462L64.8067 31.6789C66.2753 28.6904 66.2753 24.2078 64.8067 21.2194C63.338 18.2308 60.4008 15.2424 57.4635 13.7481C54.5263 12.2539 53.0576 12.2539 51.589 12.2539Z" fill="#2490EB" fill-opacity="0.2"/>
        <path d="M54.3933 54L33.0663 43.9411C33.0663 43.9411 33.0664 43.9411 32 42.8235V41.7059L34.1328 36.1176C34.1328 35 35.1991 35 35.1991 35L55.4598 45.0589C55.4598 45.0589 55.4597 45.0588 56.5261 46.1765C57.5924 47.2941 56.5261 47.2941 56.5261 47.2941L54.3933 54ZM35.1991 42.8235L53.327 51.7647L54.3933 48.4118L36.2654 39.4706L35.1991 42.8235Z" fill="#2490EB" fill-opacity="0.2"/>
        <path d="M16.343 70.5287C10.4685 67.5401 6.06262 63.0575 6.06262 57.0806L0.188066 19.7249C-1.28057 10.7595 6.0626 1.79406 14.8744 0.299835C23.6862 -1.1944 32.4979 6.27676 33.9666 15.2421C33.9666 16.7364 33.9666 16.7364 32.498 16.7364C31.0293 16.7364 31.0293 16.7364 31.0293 15.2421C29.5607 7.77097 22.2176 1.79402 14.8744 3.28825C7.53122 4.78248 1.65665 12.2537 3.12529 19.7249L8.99986 57.0806C8.99986 61.5633 13.4057 66.046 17.8116 67.5402C17.8116 67.5402 17.8117 69.0344 16.343 70.5287C17.8117 70.5287 17.8117 70.5287 16.343 70.5287Z" fill="#2490EB" fill-opacity="0.2"/>
        <path d="M8.35292 41C7.17644 41 7.17646 41.0001 7.17646 39.7778L6 33.6667V32.4444C6 32.4444 5.99998 32.4444 7.17646 32.4444L24.8236 30C26.0001 30 26 29.9999 26 31.2222C26 32.4444 26.0001 32.4444 24.8236 32.4444L8.35292 34.8889V38.5555L20.1177 37.3333C21.2941 37.3333 21.2942 37.3333 21.2942 38.5555C21.2942 39.7778 21.2941 39.7778 20.1177 39.7778L8.35292 41Z" fill="#2490EB" fill-opacity="0.2"/>
    </g>
    <defs>
        <clipPath id="clip0_34_3269">
            <rect width="66" height="78" fill="white"/>
        </clipPath>
    </defs>
</svg>