<svg xmlns="http://www.w3.org/2000/svg" width="22" height="18" viewBox="0 0 22 18" fill="none">
    <path fill-rule="evenodd" clip-rule="evenodd" d="M0.25 1.5C0.25 1.08579 0.585786 0.75 1 0.75H21C21.4142 0.75 21.75 1.08579 21.75 1.5V16.5C21.75 16.9142 21.4142 17.25 21 17.25H1C0.585786 17.25 0.25 16.9142 0.25 16.5V1.5ZM1.75 2.25V15.75H20.25V2.25H1.75Z" fill="white"/>
    <path fill-rule="evenodd" clip-rule="evenodd" d="M0.400044 1.05004C0.648572 0.718673 1.11867 0.651516 1.45004 0.900044L11 8.06254L20.55 0.900044C20.8814 0.651516 21.3515 0.718673 21.6 1.05004C21.8486 1.38142 21.7814 1.85152 21.45 2.10004L11.45 9.60004C11.1834 9.80004 10.8167 9.80004 10.55 9.60004L0.550044 2.10004C0.218673 1.85152 0.151516 1.38142 0.400044 1.05004Z" fill="white"/>
    <path fill-rule="evenodd" clip-rule="evenodd" d="M0.25 1.5C0.25 1.08579 0.585786 0.75 1 0.75H11C11.4142 0.75 11.75 1.08579 11.75 1.5C11.75 1.91421 11.4142 2.25 11 2.25H1.75V9C1.75 9.41421 1.41421 9.75 1 9.75C0.585786 9.75 0.25 9.41421 0.25 9V1.5Z" fill="white"/>
    <path fill-rule="evenodd" clip-rule="evenodd" d="M10.25 1.5C10.25 1.08579 10.5858 0.75 11 0.75H21C21.4142 0.75 21.75 1.08579 21.75 1.5V9C21.75 9.41421 21.4142 9.75 21 9.75C20.5858 9.75 20.25 9.41421 20.25 9V2.25H11C10.5858 2.25 10.25 1.91421 10.25 1.5Z" fill="white"/>
</svg>