<svg width="24" height="24" viewBox="0 0 24 24" fill="none" xmlns="http://www.w3.org/2000/svg">
<g clip-path="url(#clip0_60_1971)">
<mask id="mask0_60_1971" style="mask-type:luminance" maskUnits="userSpaceOnUse" x="2" y="2" width="20" height="20">
<path d="M22 2H2V22H22V2Z" fill="white"/>
</mask>
<g mask="url(#mask0_60_1971)">
<path d="M8.66883 12.2093C8.91507 12.1583 9.17236 12.0466 9.41507 11.8713C10.1129 11.3666 10.4227 10.5377 10.1062 10.0191C9.76203 9.45494 8.82068 9.49287 8.0973 10.1349C7.40556 10.7322 7.25797 11.3563 7.25797 12.0121C7.25797 12.4755 7.4062 13.3031 8.31169 14.0217C8.73922 13.6913 9.24891 13.4196 9.82747 13.2231L9.83513 13.2203C9.39058 13.0351 8.81112 12.6694 8.66883 12.2093ZM8.5572 10.6142C8.5572 10.4204 8.71159 10.2646 8.90202 10.2646C9.09227 10.2646 9.24683 10.4211 9.24683 10.6149C9.24683 10.8087 9.09227 10.9645 8.90202 10.9645C8.71163 10.9645 8.5572 10.8079 8.5572 10.6142Z" fill="#2490EB"/>
<path d="M16.7542 12.0128C16.7522 11.3562 16.6052 10.7322 15.9129 10.1349C15.1901 9.49352 14.2481 9.45421 13.9039 10.0191C13.5881 10.5377 13.8971 11.3666 14.5949 11.8714C14.8377 12.0466 15.095 12.1582 15.3412 12.2093C15.2556 12.4858 14.9957 12.7672 14.5992 13.0044C14.0539 13.3298 13.7593 13.3702 10.2709 14.5286C8.97996 14.9672 8.21175 15.8388 8.21175 16.8602C8.21175 17.5877 8.58342 18.1491 9.09991 18.5602C9.42477 18.2257 9.83032 17.9354 10.3041 17.7029C9.7586 17.4271 9.59028 17.2181 9.59028 16.8602C9.59028 16.2694 10.7711 15.9317 11.3158 15.7519V17.2471L12.6951 16.6319V15.7527C13.2407 15.9333 14.4185 16.2707 14.4185 16.8602C14.4185 17.841 11.6101 18.4193 10.4152 19.2436C9.83519 19.6456 9.52335 20.1567 9.52335 20.7573C9.52335 21.1022 9.56343 21.5297 10.1689 21.9545C10.3406 22.0917 10.5791 21.8913 10.4676 21.6986C10.0675 20.8979 10.4923 20.498 11.3172 20.1517V21.309C11.3172 21.6897 11.6261 21.9986 12.0068 21.9986C12.3875 21.9986 12.6964 21.6897 12.6964 21.309V20.1525C13.4887 20.4848 13.9875 20.9545 13.544 21.6986C13.4341 21.8876 13.6682 22.0933 13.8419 21.9545C14.4281 21.5103 14.4743 21.1297 14.4743 20.7662C14.4743 20.207 14.1682 19.6642 13.5874 19.2484C14.7612 18.8242 15.7998 18.1105 15.7998 16.8616C15.7998 15.9988 15.2516 15.243 14.304 14.7644C14.7467 14.6051 14.9694 14.4982 15.2652 14.3217C16.5612 13.5472 16.7542 12.5424 16.7542 12.0128ZM15.1088 10.9645C14.9184 10.9645 14.764 10.808 14.764 10.6142C14.764 10.4204 14.9184 10.2638 15.1088 10.2638C15.2991 10.2638 15.4537 10.4204 15.4537 10.6142C15.4537 10.808 15.2991 10.9645 15.1088 10.9645Z" fill="#2490EB"/>
<path d="M21.6547 3.3806H16.9317C16.0052 3.3806 15.31 3.79016 14.7118 4.38832C14.0621 5.03813 13.7242 6.48262 12.6895 6.48262V4.56724C13.1001 4.32833 13.3792 3.88856 13.3792 3.37927C13.3792 2.61752 12.7617 2 11.9998 2C11.2381 2 10.6206 2.61752 10.6206 3.37927C10.6206 3.88852 10.8997 4.32828 11.3102 4.56724V12.7862C11.7358 12.6504 12.203 12.5008 12.6895 12.3445V8.89013C12.9887 8.74 13.2302 8.49729 13.3782 8.19691C13.6181 8.6069 14.0741 8.89767 14.5823 8.89767C15.0979 8.89767 15.5421 8.61142 15.7787 8.19252C16.5866 9.00047 18.0883 9.01603 18.8962 8.20812L17.7243 7.03618L18.2618 7.25888C19.3175 7.69615 20.5278 7.19483 20.9651 6.13918L19.3002 5.44954C20.9131 5.4495 21.6547 4.43743 21.6547 3.3806Z" fill="#2490EB"/>
<path d="M9.28793 4.38834C8.6898 3.79017 7.99452 3.38062 7.068 3.38062H2.34505C2.34505 4.43739 3.08671 5.44951 4.69959 5.44951L3.03468 6.13914C3.472 7.1948 4.68226 7.69607 5.73792 7.25885L6.27553 7.03614L5.10358 8.20808C5.91149 9.01603 7.41317 9.00047 8.22107 8.19248C8.4577 8.61143 8.90187 8.89767 9.41741 8.89767C9.42249 8.89767 9.42758 8.89763 9.43267 8.89759C10.1065 8.88991 10.6216 8.28123 10.6216 7.60737V6.21992C10.078 5.77394 9.76671 4.86712 9.28793 4.38834Z" fill="#2490EB"/>
</g>
</g>
<defs>
<clipPath id="clip0_60_1971">
<rect width="20" height="20" fill="white" transform="translate(2 2)"/>
</clipPath>
</defs>
</svg>
