<svg width="40" height="40" viewBox="0 0 40 40" fill="none" xmlns="http://www.w3.org/2000/svg">
<g clip-path="url(#clip0_53_9022)">
<g clip-path="url(#clip1_53_9022)">
<path fill-rule="evenodd" clip-rule="evenodd" d="M17.72 17.5268C18.3353 16.7976 20.8016 14.3911 24.7637 17.0531C24.9248 17.1614 24.9647 17.3756 24.8527 17.5314C24.7407 17.6873 24.5193 17.7258 24.3582 17.6174C20.5154 15.0356 18.347 17.8428 18.1667 18.09C18.089 18.2165 17.9328 18.2845 17.7783 18.2486C16.3249 17.9149 14.9479 17.8461 13.5825 18.5362C12.4136 19.1271 11.4934 20.2036 10.8849 21.7088C10.4809 23.6468 11.885 25.1974 12.0481 25.3697C13.6328 26.8044 17.3276 27.055 19.0297 25.9585C19.4515 25.6866 20.7086 24.9467 22.2172 24.7207C22.6471 24.6412 23.2185 24.637 23.653 24.6855C24.3002 24.7577 24.6585 24.5355 25.0491 24.2932C26.0176 23.6924 27.1477 22.9913 31.7436 24.8812C32.9458 24.6313 33.9161 24.3295 34.6095 23.8096C35.2977 23.2934 35.7289 22.5385 35.8681 21.362C36.3119 17.6158 35.6264 14.4642 33.9592 12.0215C32.2668 9.54196 29.5549 7.7809 25.9786 6.85916C21.436 5.68824 16.7868 5.73316 12.9062 6.87795C9.1927 7.97345 6.18811 10.0768 4.6729 13.0839C4.14472 14.132 3.91839 15.3222 4.02624 16.4729C4.12848 17.5634 4.53146 18.6189 5.26286 19.4832C6.87226 21.3851 9.54053 21.3452 10.2943 21.2919C10.9675 19.7155 11.9756 18.5755 13.2547 17.9289C14.5141 17.2923 16.023 17.1401 17.72 17.5268ZM23.4924 20.2427C24.3697 20.4031 25.8967 20.6823 26.7123 19.4111C27.1438 18.7384 27.6332 18.2999 28.0728 17.906C28.696 17.3478 29.204 16.8925 29.172 15.8978C29.1666 15.7086 29.3208 15.551 29.5164 15.5458C29.712 15.5406 29.8749 15.6897 29.8802 15.879C29.9223 17.1821 29.3074 17.7329 28.5533 18.4086C28.15 18.7699 27.701 19.1722 27.315 19.7739C26.2435 21.4441 24.4133 21.1095 23.3619 20.9172C21.833 20.6377 20.8949 19.9592 19.2507 20.6054C18.3647 20.9537 17.1889 21.2176 16.2413 20.9575C15.2616 20.6887 14.242 21.896 14.551 22.8471C14.6092 23.0282 14.5048 23.2207 14.3177 23.2771C14.1305 23.3335 13.9315 23.2324 13.8733 23.0513C13.3983 21.5896 14.9045 19.8771 16.4329 20.2965C17.2184 20.5121 18.254 20.2554 18.9841 19.9685C20.9257 19.2054 21.7483 19.9237 23.4924 20.2427ZM31.3111 23.2039C31.0197 22.862 30.8231 22.3243 30.9131 21.8813C30.9597 21.6519 31.081 21.4683 31.2834 21.3718C31.7657 21.1418 32.2449 20.8162 32.6247 20.4489C32.7634 20.3146 32.9886 20.3146 33.1274 20.4489C33.2662 20.5832 33.2662 20.801 33.1274 20.9353C32.833 21.2201 32.5182 21.451 32.2426 21.6271C31.7148 21.9642 31.4811 21.8175 31.6435 22.3641C31.7342 22.6697 31.9742 23.0104 32.3376 23.0104C32.534 23.0104 32.6932 23.1644 32.6932 23.3544C32.6932 23.5443 32.534 23.6984 32.3376 23.6984C31.9023 23.6984 31.5569 23.4923 31.3111 23.2039ZM27.4545 15.3549C27.2635 15.3987 27.072 15.2843 27.0267 15.0995C26.353 12.367 23.7709 14.3587 23.7635 14.3644C23.6093 14.4816 23.3861 14.4557 23.2649 14.3066C23.1438 14.1574 23.1705 13.9414 23.3246 13.8242C23.3346 13.8166 26.7845 11.1539 27.7183 14.941C27.7636 15.1258 27.6455 15.3111 27.4545 15.3549ZM31.3322 15.1042C31.4826 14.9825 31.7064 15.0017 31.8322 15.1472C31.8352 15.1505 32.7234 16.1531 32.6279 17.508C32.9938 17.5125 33.4367 17.7961 33.8103 18.8443C33.874 19.0239 33.7751 19.2194 33.5895 19.281C33.4039 19.3426 33.2018 19.2469 33.1381 19.0673C32.7844 18.0749 32.4953 18.2517 32.435 18.3036C32.3464 18.4099 32.1967 18.459 32.0537 18.4165C31.8676 18.3611 31.7624 18.1714 31.8169 17.9912C32.0619 17.1724 31.854 16.2427 31.2878 15.5879C31.162 15.4424 31.1819 15.2259 31.3322 15.1042ZM18.5823 22.7006C18.6912 22.5425 18.9119 22.4998 19.0753 22.6052C19.991 23.1957 21.3889 21.6529 22.5675 22.0696C23.6636 22.4572 24.8993 22.4605 25.9886 22.0507C26.1711 21.9825 26.3763 22.0703 26.4469 22.2468C26.5175 22.4235 26.4267 22.622 26.2441 22.6903C24.9975 23.1593 23.5805 23.1582 22.3259 22.7146C21.5172 22.4287 20.0237 24.0436 18.6809 23.1776C18.5175 23.0722 18.4734 22.8586 18.5823 22.7006ZM31.4637 14.0601C31.2851 14.1365 31.0761 14.0583 30.9971 13.8854C30.1274 11.9921 28.5471 11.8907 28.5426 11.8904C28.347 11.8762 28.2002 11.7114 28.2148 11.5222C28.2294 11.333 28.3998 11.191 28.5954 11.2051C28.6011 11.2055 30.5998 11.3349 31.6443 13.6086C31.7233 13.7815 31.6424 13.9837 31.4637 14.0601ZM21.7369 14.3641C21.5421 14.382 21.3692 14.2436 21.3509 14.0551C21.3495 14.0422 20.975 10.638 23.1613 9.77529C22.9469 8.4711 24.2858 8.08236 24.29 8.08108C24.4772 8.02466 24.6761 8.12579 24.7344 8.30684C24.7927 8.48788 24.6882 8.68043 24.5011 8.73678C24.4989 8.73749 23.8182 8.93483 23.8608 9.60281C24.4769 9.52918 25.2408 9.61717 26.1872 9.93713C26.372 9.99941 26.4696 10.1949 26.4052 10.3738C26.3408 10.5526 26.1387 10.647 25.9538 10.5848C21.5174 9.08509 22.0549 13.9766 22.0563 13.9906C22.0748 14.1791 21.9317 14.3463 21.7369 14.3641ZM12.2629 14.3004C12.2161 14.4845 12.024 14.597 11.8337 14.5517C11.6436 14.5065 11.5273 14.3206 11.574 14.1365C11.5761 14.1286 12.2413 11.3656 15.4828 12.2947C15.6708 12.3481 15.7783 12.5389 15.7231 12.7207C15.6679 12.9025 15.4708 13.0065 15.2828 12.9531C12.7602 12.2301 12.2644 14.2946 12.2629 14.3004ZM9.03539 13.5131C9.00313 13.7001 8.82035 13.8264 8.62709 13.7953C8.43376 13.7641 8.30317 13.5872 8.33543 13.4003C8.33721 13.3896 8.93632 9.73637 12.1068 9.63788C12.2011 8.84791 12.8894 7.23483 17.181 8.73564C17.3651 8.8002 17.4603 8.99689 17.3936 9.17501C17.3268 9.35313 17.1235 9.44512 16.9394 9.38056C12.7459 7.9141 12.7888 9.73223 12.805 9.92927C12.8341 10.1629 12.6556 10.3352 12.4417 10.3279C10.4811 10.2647 9.33184 11.7943 9.03539 13.5131ZM17.7579 13.8021C17.2871 12.2083 17.3867 12.1193 18.1653 11.424C18.2327 11.3638 18.3058 11.2985 18.3666 11.2428C19.7933 9.9352 19.8985 7.84989 19.8988 7.84382C19.9095 7.65463 20.0768 7.50965 20.2724 7.52001C20.468 7.53036 20.6178 7.6922 20.6071 7.88146C20.6068 7.88825 20.4881 10.2436 18.8555 11.74C18.7684 11.8198 18.7044 11.8769 18.6458 11.9293C18.1532 12.3692 18.0901 12.4255 18.4411 13.614C18.4948 13.7966 18.3854 13.9867 18.1967 14.0386C18.008 14.0906 17.8115 13.9847 17.7579 13.8021ZM8.50736 18.6722C8.41383 18.8391 8.19798 18.9011 8.02539 18.8106C8.01801 18.8067 5.42297 17.4847 7.17286 14.6847C7.27406 14.5223 7.49235 14.4699 7.66036 14.5678C7.8283 14.6658 7.88241 14.8769 7.78113 15.0395C6.42042 17.2168 8.35883 18.2031 8.3643 18.2059C8.53689 18.2965 8.60089 18.5053 8.50736 18.6722Z" fill="#2490EB"/>
<path fill-rule="evenodd" clip-rule="evenodd" d="M31.3068 27.4801C31.8406 26.6154 31.537 25.9443 31.7095 25.5834C31.6513 25.5837 31.5951 25.5702 31.5452 25.5455C27.2275 23.7574 26.2604 24.3573 25.4324 24.871C24.9301 25.1826 24.4696 25.4683 23.5725 25.3681C23.2231 25.3291 22.8768 25.3339 22.5413 25.3697C21.8446 27.5031 25.396 29.416 25.9895 29.7185C29.2009 29.4957 30.6857 28.4862 31.3068 27.4801Z" fill="#2490EB"/>
<path fill-rule="evenodd" clip-rule="evenodd" d="M24.6881 29.7636C23.4015 28.939 21.4471 27.3559 21.7792 25.5037C20.7034 25.7647 19.8279 26.2701 19.4697 26.4976C19.6168 27.5 19.662 28.085 19.6916 28.4674C19.7187 28.8193 19.731 28.9779 19.7971 29.1206C19.8595 29.255 19.9809 29.4234 20.2019 29.7296C20.6445 30.3433 21.4623 31.477 23.002 33.9999C23.8753 33.9699 24.3241 33.4745 24.5053 33.2032C24.2071 32.8212 23.7172 32.0628 23.4408 31.4049C23.1831 30.7916 22.9622 29.7286 23.9785 29.7551C24.2224 29.7615 24.4589 29.7643 24.6881 29.7636Z" fill="#2490EB"/>
</g>
</g>
<defs>
<clipPath id="clip0_53_9022">
<rect width="32" height="28" fill="white" transform="translate(4 6)"/>
</clipPath>
<clipPath id="clip1_53_9022">
<rect width="32" height="28" fill="white" transform="translate(4 6)"/>
</clipPath>
</defs>
</svg>
