<svg width="40" height="40" viewBox="0 0 40 40" fill="none" xmlns="http://www.w3.org/2000/svg">
<path d="M6.49812 12.1399C5.8691 12.7124 5.67186 13.4105 6.05782 14.0292C6.55767 14.8305 7.12754 15.5071 7.63218 16.0305C7.19875 16.0655 6.81513 16.2163 6.52984 16.4912C6.41674 16.6003 6.32469 16.7234 6.25306 16.8579C5.75376 16.3141 5.21225 15.6428 4.72448 14.8609C3.78033 13.3473 4.50174 11.8319 5.44049 10.9777C5.91811 10.543 6.50872 10.2129 7.11048 10.0729C7.70491 9.93455 8.41705 9.96382 8.9862 10.4201C10.2272 11.4148 10.8602 11.5466 11.2789 11.5832C11.3572 11.59 11.4472 11.5919 11.5476 11.5941C11.991 11.6037 12.6352 11.6176 13.3527 12.0776L12.5044 13.4005C12.1831 13.1945 12.0315 13.1896 11.6821 13.1785C11.5418 13.174 11.3698 13.1685 11.142 13.1487C10.3414 13.0787 9.42265 12.7839 8.00332 11.6462C7.93933 11.5949 7.78067 11.5304 7.46663 11.6035C7.15992 11.6748 6.80439 11.8613 6.49812 12.1399Z" fill="#2490EB"/>
<path fill-rule="evenodd" clip-rule="evenodd" d="M11.2744 17.969C12.5946 19.186 12.9629 20.8492 12.0968 21.684C11.2308 22.5187 9.45831 22.2089 8.13803 20.9918C6.81772 19.7749 6.44949 18.1117 7.31556 17.2769C8.18163 16.4421 9.95403 16.752 11.2744 17.969ZM10.1429 19.0596C10.6056 19.4861 10.8475 19.9448 10.9224 20.2831C10.9639 20.4707 10.949 20.5704 10.9356 20.6136C10.8901 20.6272 10.7846 20.6434 10.5847 20.6085C10.2242 20.5455 9.73222 20.3278 9.2695 19.9013C8.80677 19.4748 8.56494 19.0161 8.49002 18.6778C8.44849 18.4902 8.46337 18.3904 8.47684 18.3473C8.52233 18.3336 8.62774 18.3174 8.82768 18.3523C9.18825 18.4153 9.6802 18.633 10.1429 19.0596ZM10.9239 20.6394C10.9235 20.64 10.9235 20.6403 10.9235 20.6404C10.9238 20.6405 10.9253 20.6384 10.9277 20.6338C10.9271 20.6346 10.9265 20.6353 10.9261 20.6359C10.9259 20.6361 10.9262 20.6357 10.9261 20.6359C10.9253 20.6372 10.9242 20.6387 10.9239 20.6394ZM10.9568 20.6057C10.9612 20.6026 10.9636 20.6014 10.9637 20.6016C10.9638 20.6019 10.9617 20.6034 10.9568 20.6057ZM8.48653 18.3246C8.48837 18.322 8.48903 18.3206 8.48886 18.3205C8.48863 18.3204 8.48702 18.3225 8.4847 18.3271C8.4854 18.3262 8.48601 18.3254 8.48653 18.3246ZM8.45558 18.3552C8.45123 18.3583 8.4488 18.3594 8.44866 18.3592C8.44852 18.359 8.4507 18.3574 8.45558 18.3552Z" fill="#2490EB"/>
<path d="M33.942 14.0292C34.3279 13.4105 34.1307 12.7124 33.5016 12.1399C33.1954 11.8613 32.8399 11.6748 32.5332 11.6035C32.2191 11.5304 32.0605 11.5949 31.9965 11.6462C30.5772 12.7839 29.6584 13.0787 28.8578 13.1487C28.63 13.1685 28.458 13.174 28.3177 13.1785C27.9683 13.1896 27.8167 13.1945 27.4954 13.4005L26.6471 12.0776C27.3646 11.6176 28.0088 11.6037 28.4522 11.5941C28.5526 11.5919 28.6426 11.59 28.7209 11.5832C29.1396 11.5466 29.7726 11.4148 31.0136 10.4201C31.5827 9.96382 32.2949 9.93455 32.8893 10.0729C33.4911 10.2129 34.0817 10.543 34.5593 10.9777C35.498 11.8319 36.2195 13.3473 35.2753 14.8609C34.7773 15.6593 34.2233 16.3423 33.7153 16.892C33.6413 16.7442 33.5434 16.6094 33.4209 16.4912C33.1455 16.2259 32.7786 16.0762 32.3637 16.0346C32.8693 15.5106 33.4408 14.8326 33.942 14.0292Z" fill="#2490EB"/>
<path fill-rule="evenodd" clip-rule="evenodd" d="M28.6765 17.969C27.3562 19.186 26.9879 20.8492 27.854 21.684C28.7201 22.5187 30.4925 22.2089 31.8128 20.9918C33.1331 19.7749 33.5013 18.1117 32.6353 17.2769C31.7692 16.4421 29.9968 16.752 28.6765 17.969ZM29.8079 19.0596C29.3452 19.4861 29.1033 19.9448 29.0285 20.2831C28.9869 20.4707 29.0018 20.5704 29.0153 20.6136C29.0608 20.6272 29.1662 20.6434 29.3661 20.6085C29.7267 20.5455 30.2186 20.3278 30.6813 19.9013C31.144 19.4748 31.3859 19.0161 31.4608 18.6778C31.5023 18.4902 31.4875 18.3904 31.474 18.3473C31.4285 18.3336 31.3231 18.3174 31.1231 18.3523C30.7626 18.4153 30.2706 18.633 29.8079 19.0596ZM29.0248 20.6359C29.0267 20.6387 29.0274 20.6403 29.0273 20.6404C29.027 20.6405 29.0255 20.6384 29.0231 20.6338C29.0237 20.6346 29.0243 20.6353 29.0248 20.6359ZM28.9906 20.6034L28.994 20.6057L28.9917 20.6045L28.9889 20.603C28.9876 20.6023 28.9871 20.6017 28.9871 20.6016M28.9906 20.6034L28.988 20.6019L28.9906 20.6034ZM31.4619 18.3205C31.4617 18.3206 31.4629 18.3229 31.4661 18.3271C31.4638 18.3225 31.4622 18.3204 31.4619 18.3205ZM31.4953 18.3552C31.4996 18.3583 31.502 18.3594 31.5022 18.3592C31.5023 18.359 31.5001 18.3574 31.4953 18.3552Z" fill="#2490EB"/>
<path fill-rule="evenodd" clip-rule="evenodd" d="M15.2948 11.9438C16.3348 11.1923 17.8767 10.7854 20.0079 10.7854C22.1278 10.7854 23.6687 11.1563 24.7082 11.8571C25.7922 12.5879 26.2497 13.6227 26.2837 14.7047C26.3164 15.7445 25.9616 16.8031 25.4957 17.7067C25.0256 18.6183 24.4067 19.4419 23.8241 20.0274C23.4633 20.39 23.2031 20.9917 23.0434 21.8648C22.8856 22.7274 22.8434 23.7493 22.8332 24.8571C22.8301 25.2046 22.8301 25.5631 22.8302 25.9255V25.9263C22.8303 26.6908 22.8304 27.473 22.8003 28.2056C22.7558 29.2885 22.6438 30.3666 22.3338 31.2692C22.2753 31.4395 22.153 31.6961 21.8816 31.8618C21.577 32.0479 21.2649 32.0138 21.0612 31.9451C20.8761 31.8827 20.7285 31.7777 20.6346 31.7038C20.5328 31.6236 20.4368 31.5332 20.3568 31.4549C20.2919 31.3914 20.2367 31.3358 20.1869 31.2854C20.1144 31.2124 20.0533 31.1507 19.9904 31.0932C19.9087 31.1576 19.8359 31.2216 19.7506 31.2966C19.6847 31.3543 19.6116 31.4186 19.5212 31.4946C19.3669 31.6244 19.0808 31.8625 18.7571 31.9557C18.5662 32.0106 18.278 32.0402 17.9861 31.8858C17.7019 31.7354 17.5572 31.4855 17.4838 31.2901C17.1494 30.3995 16.9757 29.2988 16.8668 28.1771C16.7782 27.2648 16.7289 26.2917 16.6814 25.355L16.6814 25.3532C16.6702 25.133 16.6591 24.9143 16.6476 24.6994C16.5866 23.5516 16.5145 22.4993 16.3656 21.6414C16.2094 20.7415 15.9954 20.2396 15.7843 20.0274C15.3074 19.5482 14.7763 18.7714 14.3748 17.8882C13.9733 17.0052 13.6658 15.938 13.7204 14.8812C13.7767 13.7938 14.2208 12.7197 15.2948 11.9438ZM19.8433 30.9742C19.8408 30.9729 19.8404 30.9725 19.8423 30.9736L19.8433 30.9742Z" fill="#2490EB"/>
</svg>
