<svg width="24" height="24" viewBox="0 0 24 24" fill="none" xmlns="http://www.w3.org/2000/svg">
<path d="M15.4863 18.3563C14.0897 18.4841 12.9544 18.6171 12.0004 18.7774C9.10297 19.2644 7.93206 20.0931 6.59783 21.7824C6.37516 22.0599 5.96494 22.072 5.7306 21.8185L2.17416 18.1176C1.97459 17.912 1.94091 17.5859 2.10236 17.3474C2.54969 16.6865 3.04541 16.077 3.5834 15.5283C4.64786 14.2983 5.75537 13.4219 6.79838 12.8279C7.45645 12.4531 8.1989 12.2637 8.95093 12.2637H12.4302C13.4937 12.2637 14.3918 12.9932 14.6783 13.9928C14.7708 14.3152 14.5585 14.6553 14.2329 14.6764C14.2203 14.6772 14.2074 14.6776 14.1945 14.6776H9.08413C8.76541 14.6776 8.49427 14.934 8.48493 15.2621C8.47505 15.609 8.73631 15.8846 9.07062 15.8846H14.9303C15.1061 15.8846 15.2701 15.8001 15.3872 15.6674C15.5372 15.5075 16.2515 14.416 17.613 13.236C18.4952 12.4713 20.6138 11.0567 21.4148 11.0567C21.9188 11.0567 22.1883 11.6723 21.8484 12.0584L16.5358 18.0934C16.4419 18.2141 16.2896 18.2865 16.1373 18.2986C15.9142 18.3178 15.6973 18.337 15.4863 18.3563Z" fill="#FFA729"/>
<path d="M15.5162 3.25905C17.2462 0.870741 20.7899 2.11647 20.7899 5.02676C20.7899 7.01278 18.8566 8.40814 17.0927 9.82353C15.2321 11.3165 15.7947 11.3118 13.9398 9.82353C11.9978 8.26527 10.2426 6.94411 10.2426 5.02676C10.2426 2.11808 13.7848 0.868649 15.5162 3.25905Z" fill="#FFA729"/>
</svg>
