<svg width="40" height="40" viewBox="0 0 40 40" fill="none" xmlns="http://www.w3.org/2000/svg">
<path fill-rule="evenodd" clip-rule="evenodd" d="M13.1914 7.94284C11.9763 9.30705 11.3296 10.7161 11.1342 12.144C10.9393 13.5681 11.2013 14.9507 11.7048 16.253C12.4846 18.2699 13.8872 20.1897 15.2206 21.8864L19.4778 16.9986C18.4162 15.5927 17.393 14.1521 16.3958 12.6936C17.6962 11.9029 18.8774 11.5401 20.0184 11.5401C21.1595 11.5401 22.3407 11.9029 23.641 12.6936C21.3745 16.0085 18.9379 19.186 16.3043 22.219C14.9536 23.7746 13.5668 25.3041 12.1393 26.8785C11.5536 27.5245 10.9607 28.1783 10.3621 28.8431C9.93417 29.2308 9.87704 29.9214 10.2361 30.3734C10.9703 31.4653 11.6924 32.5765 12.4113 33.683C13.2297 34.9425 13.8297 35.3228 14.9911 33.9662C16.6075 32.0781 20.6383 27.1447 23.7546 23.2227C25.435 21.1079 27.358 18.7725 28.3321 16.253C28.8355 14.9507 29.0976 13.5681 28.9027 12.144C28.7073 10.7161 28.0606 9.30706 26.8455 7.94286C25.1885 5.95068 22.5688 5 20.0184 5C17.4681 5 14.8484 5.95067 13.1914 7.94284ZM15.5205 11.3816C17.0204 10.4602 18.4988 9.96572 20.0184 9.96572C21.5381 9.96572 23.0165 10.4602 24.5163 11.3816C25.1867 10.312 25.4501 9.60983 25.4606 8.75451C24.1582 7.32771 22.1201 6.5744 20.0184 6.5744C17.9168 6.5744 15.8787 7.3277 14.5763 8.75452C14.5868 9.60983 14.8501 10.3119 15.5205 11.3816Z" fill="#2490EB"/>
<path d="M24.8552 23.4981L20.631 28.6262C22.5697 31.0087 24.3148 33.1199 25.1834 34.1264C25.4328 34.4154 25.7126 34.8411 26.0935 34.963C26.4303 35.0707 26.8105 34.9374 27.0032 34.6399C27.5549 33.7931 29.4832 30.7459 29.8532 30.1609C30.0679 29.8216 30.0548 29.3634 29.7631 29.0352C29.2755 28.4868 26.5656 25.4374 24.8552 23.4981Z" fill="#2490EB"/>
</svg>
