<svg width="24" height="24" viewBox="0 0 24 24" fill="none" xmlns="http://www.w3.org/2000/svg">
<path d="M21.2307 9.69256H19.6922C19.6902 8.26505 19.1222 6.89659 18.1128 5.88719C17.1034 4.87779 15.7349 4.30981 14.3074 4.30777V2.76926C16.143 2.7713 17.9028 3.50137 19.2007 4.7993C20.4986 6.09723 21.2287 7.85701 21.2307 9.69256ZM15.3328 16.2174L17.056 14.4943C17.2868 14.2638 17.5801 14.106 17.8995 14.0404C18.219 13.9748 18.5508 14.0042 18.8537 14.125L20.9523 14.965C21.2614 15.0891 21.5263 15.3027 21.713 15.5785C21.8998 15.8543 21.9997 16.1797 22 16.5128V20.3291C22.0005 20.5559 21.9548 20.7804 21.8655 20.989C21.7763 21.1975 21.6454 21.3856 21.4809 21.5418C21.3165 21.698 21.1218 21.819 20.909 21.8973C20.6961 21.9757 20.4695 22.0098 20.243 21.9976C5.53324 21.0822 2.56236 8.6233 2.0108 3.85237C1.98409 3.61913 2.00706 3.38288 2.0782 3.15915C2.14934 2.93542 2.26704 2.72929 2.42356 2.55431C2.58008 2.37934 2.77188 2.23948 2.98633 2.14394C3.20077 2.0484 3.43302 1.99935 3.66779 2.00001H7.41638C7.74945 2.00031 8.07482 2.10024 8.35064 2.28695C8.62646 2.47366 8.84011 2.73861 8.96413 3.04773L9.8034 5.14626C9.92421 5.44922 9.95362 5.78094 9.888 6.10043C9.82238 6.41993 9.6646 6.7132 9.43415 6.94401L7.71101 8.66714C7.71101 8.66714 8.66643 15.3843 15.3328 16.2174Z" fill="white"/>
<path d="M18.1541 9.69224H16.6156C16.6149 9.08037 16.3716 8.49374 15.9389 8.06108C15.5063 7.62842 14.9196 7.38509 14.3078 7.38447V5.84596C15.3275 5.84719 16.3051 6.25281 17.0262 6.97386C17.7472 7.69491 18.1528 8.67252 18.1541 9.69224Z" fill="white"/>
</svg>
