<svg width="40" height="40" viewBox="0 0 40 40" fill="none" xmlns="http://www.w3.org/2000/svg">
<path fill-rule="evenodd" clip-rule="evenodd" d="M20 7C20.4418 7 20.8 7.40058 20.8 7.89473H20H19.2C19.2 7.40058 19.5582 7 20 7ZM20.8 16.9558V7.89473H20H19.2V16.9558C18.7565 17.0894 18.376 17.3356 18.0557 17.6682C17.5806 18.1617 17.2764 18.8051 17.0573 19.4176C16.8608 19.967 16.7097 20.562 16.576 21.0883C16.5608 21.1483 16.5458 21.2075 16.5309 21.2655C16.3779 21.8645 16.2461 22.3438 16.0846 22.7049C15.887 23.1469 16.0472 23.6844 16.4424 23.9053C16.8376 24.1263 17.3181 23.9472 17.5157 23.5052C17.7542 22.9717 17.9223 22.3326 18.0693 21.7571C18.0842 21.699 18.0989 21.6412 18.1135 21.5839C18.2511 21.0429 18.3791 20.5399 18.5428 20.0821C18.7238 19.5762 18.9196 19.213 19.1444 18.9795C19.3458 18.7703 19.6012 18.6314 20 18.6314C20.3988 18.6314 20.6542 18.7703 20.8556 18.9795C21.0804 19.213 21.2762 19.5762 21.4572 20.0821C21.6209 20.5399 21.7489 21.0429 21.8865 21.5839C21.9011 21.6412 21.9158 21.699 21.9307 21.7571C22.0777 22.3326 22.2458 22.9717 22.4843 23.5052C22.6819 23.9472 23.1624 24.1263 23.5576 23.9053C23.9528 23.6844 24.113 23.1469 23.9154 22.7049C23.7539 22.3438 23.6221 21.8645 23.4691 21.2655C23.4542 21.2075 23.4392 21.1483 23.424 21.0883C23.2903 20.562 23.1392 19.967 22.9427 19.4176C22.7236 18.8051 22.4194 18.1617 21.9443 17.6682C21.624 17.3356 21.2435 17.0894 20.8 16.9558Z" fill="#2490EB"/>
<path d="M13.9856 12.2254C11.2805 11.3804 8.68455 12.9984 6.90778 15.6182C5.10433 18.2773 3.93627 22.2032 4.00269 26.7105C4.05453 30.2275 7.03222 33.0005 10.5537 33C13.0267 32.9997 15.6954 32.5383 17.0071 30.3781C17.7046 29.2292 17.9992 28.2232 18 27.2048C18.0008 26.2225 17.7243 25.294 17.4247 24.35L17.3247 24.0367C16.737 22.1999 15.9901 19.866 16.1228 15.8563C16.1652 14.5759 15.7036 12.7621 13.9856 12.2254Z" fill="#2490EB"/>
<path d="M26.0144 12.2254C28.7195 11.3804 31.3155 12.9984 33.0922 15.6182C34.8957 18.2773 36.0637 22.2032 35.9973 26.7105C35.9455 30.2275 32.9678 33.0005 29.4463 33C26.9733 32.9997 24.3046 32.5383 22.9929 30.3781C22.2954 29.2292 22.0008 28.2232 22 27.2048C21.9992 26.2225 22.2757 25.294 22.5753 24.35L22.6753 24.0367C23.263 22.1999 24.0099 19.866 23.8772 15.8563C23.8348 14.5759 24.2964 12.7621 26.0144 12.2254Z" fill="#2490EB"/>
</svg>
