<svg width="40" height="40" viewBox="0 0 40 40" fill="none" xmlns="http://www.w3.org/2000/svg">
<path d="M30.6049 5.87548C28.6654 4.42391 25.9057 4.81834 24.4531 6.75506C22.9994 8.69353 23.3937 11.4541 25.332 12.908C25.6432 13.1418 25.8805 13.4442 26.0292 13.787H25.2734C23.8196 13.787 22.6367 12.604 22.6367 11.15H20.8789C20.8789 12.5862 21.5713 13.8635 22.6398 14.666C21.5713 15.4685 20.8788 16.7458 20.8789 18.182V22.7574C20.5918 22.7152 20.2982 22.6941 20 22.6941C19.7018 22.6941 19.4082 22.7152 19.1211 22.7574V18.182C19.1211 16.7458 18.4287 15.4685 17.3602 14.666C18.4287 13.8635 19.1211 12.5862 19.1211 11.15H17.3633C17.3633 12.604 16.1804 13.787 14.7266 13.787H13.9707C14.1195 13.4442 14.3568 13.1418 14.6685 12.908C16.6062 11.4541 17.0006 8.69353 15.5469 6.75447C14.0943 4.81834 11.3346 4.42391 9.39394 5.87606C6.60136 7.97099 5 11.1746 5 14.666C5 18.1573 6.60136 21.361 9.39394 23.4559C11.3352 24.9097 14.0949 24.5113 15.5469 22.5769C17.0006 20.6385 16.6062 17.8778 14.668 16.424C14.3568 16.1901 14.1195 15.8878 13.9707 15.545H14.7266C16.1804 15.545 17.3633 16.7279 17.3633 18.182V23.2889C15.2862 24.2774 13.8477 26.3976 13.8477 28.8471C13.8477 32.2399 16.6075 35 20 35C23.3925 35 26.1523 32.2399 26.1523 28.8471C26.1523 26.3976 24.7138 24.2774 22.6367 23.2889V18.182C22.6367 16.7279 23.8196 15.545 25.2734 15.545H26.0292C25.8805 15.8879 25.6432 16.1902 25.3315 16.424C23.3937 17.8779 22.9994 20.6385 24.4531 22.5776C25.9039 24.5101 28.6631 24.9115 30.6055 23.4566C33.3981 21.3617 35 18.1574 35 14.666C35 11.1747 33.3987 7.97099 30.6049 5.87548ZM22.6367 29.7261H20.8789V31.484H19.1211V29.7261H17.3633V27.9681H19.1211V26.2101H20.8789V27.9681H22.6367V29.7261Z" fill="#2490EB"/>
</svg>
