<svg width="171" height="62" viewBox="0 0 171 62" fill="none" xmlns="http://www.w3.org/2000/svg">
<g clip-path="url(#clip0_71_5374)">
<path d="M0 2.07392H9.09461C10.3621 2.07392 11.5609 2.18914 12.6908 2.41957C13.8201 2.65001 14.8053 3.04746 15.6464 3.61193C16.488 4.17703 17.1566 4.93772 17.6522 5.894C18.1478 6.85027 18.3956 8.05425 18.3956 9.50593C18.3956 10.9344 18.165 12.1327 17.704 13.1009C17.243 14.0685 16.6092 14.8405 15.8028 15.4169C14.9956 15.9927 14.0387 16.4017 12.932 16.6441C11.8259 16.8858 10.6272 17.0067 9.3358 17.0067H5.39383V26.5475H0V2.07392ZM5.39383 12.4445H8.99003C9.4743 12.4445 9.9413 12.3983 10.391 12.306C10.8407 12.2137 11.244 12.058 11.6007 11.8389C11.9581 11.6203 12.2464 11.3208 12.4656 10.9403C12.6848 10.5598 12.7945 10.0817 12.7945 9.50593C12.7945 8.88369 12.6503 8.38232 12.362 8.00182C12.0737 7.62195 11.7047 7.32841 11.255 7.12121C10.8059 6.91338 10.3047 6.78058 9.7513 6.72281C9.19794 6.66567 8.66782 6.63711 8.16094 6.63711H5.39383V12.4445Z" fill="#2490EB"/>
<path d="M21.1279 9.74798H26.3145V12.4445H26.3833C26.9366 11.4072 27.5936 10.6292 28.3543 10.1106C29.1149 9.59195 30.0718 9.33263 31.225 9.33263C31.5246 9.33263 31.8242 9.34425 32.1238 9.36748C32.4234 9.39071 32.7001 9.43686 32.9538 9.50593V14.2415C32.5845 14.1266 32.2215 14.0402 31.8647 13.9825C31.5073 13.9247 31.1327 13.8958 30.7407 13.8958C29.7496 13.8958 28.9657 14.034 28.3891 14.3102C27.8131 14.5871 27.3694 14.9733 27.0578 15.4687C26.7469 15.9641 26.5453 16.5574 26.453 17.2487C26.3607 17.9401 26.3145 18.7004 26.3145 19.5299V26.5475H21.1279V9.74798Z" fill="#2490EB"/>
<path d="M33.9561 18.1473C33.9561 16.8111 34.1982 15.6015 34.6825 14.5184C35.1661 13.4353 35.8287 12.5076 36.6704 11.7353C37.5121 10.9636 38.5032 10.3702 39.6438 9.95519C40.7851 9.54015 42.0011 9.33263 43.2919 9.33263C44.5832 9.33263 45.7992 9.54015 46.9399 9.95519C48.0811 10.3702 49.0726 10.9636 49.9143 11.7353C50.7553 12.5076 51.4179 13.4353 51.9022 14.5184C52.3865 15.6015 52.6286 16.8111 52.6286 18.1473C52.6286 19.484 52.3865 20.694 51.9022 21.7771C51.4179 22.8602 50.7553 23.7879 49.9143 24.5602C49.0726 25.3319 48.0811 25.9252 46.9399 26.3403C45.7992 26.7547 44.5832 26.9619 43.2919 26.9619C42.0011 26.9619 40.7851 26.7547 39.6438 26.3403C38.5032 25.9252 37.5121 25.3319 36.6704 24.5602C35.8287 23.7879 35.1661 22.8602 34.6825 21.7771C34.1982 20.694 33.9561 19.484 33.9561 18.1473ZM39.1426 18.1473C39.1426 19.415 39.5057 20.4406 40.2317 21.2242C40.9578 22.0078 41.9779 22.3996 43.2919 22.3996C44.6058 22.3996 45.6262 22.0078 46.3529 21.2242C47.079 20.4406 47.442 19.415 47.442 18.1473C47.442 16.8802 47.079 15.8548 46.3529 15.0712C45.6262 14.2876 44.6058 13.8958 43.2919 13.8958C41.9779 13.8958 40.9578 14.2876 40.2317 15.0712C39.5057 15.8548 39.1426 16.8802 39.1426 18.1473Z" fill="#2490EB"/>
<path d="M57.4697 13.8958H54.0469V9.74798H57.4697V6.77555C57.4697 5.85318 57.5504 4.98324 57.7119 4.16573C57.8733 3.34759 58.1845 2.6274 58.6455 2.00516C59.1066 1.38293 59.7692 0.893173 60.6335 0.535904C61.4984 0.178635 62.6337 0 64.0394 0C64.5701 0 65.0889 0.022918 65.5958 0.0687539C66.1027 0.115218 66.5982 0.195901 67.0825 0.310805L66.8404 4.70069C66.5408 4.58579 66.2641 4.49946 66.0103 4.44169C65.7572 4.38392 65.4692 4.35504 65.1464 4.35504C64.3167 4.35504 63.6942 4.53368 63.279 4.89094C62.8639 5.24821 62.6563 5.98002 62.6563 7.08636V9.74798H66.4946V13.8958H62.6563V26.5475H57.4697V13.8958Z" fill="#2490EB"/>
<path d="M79.0118 24.4387H78.943C78.3664 25.3372 77.5998 25.9824 76.6432 26.3742C75.6866 26.766 74.6782 26.9619 73.6179 26.9619C72.8341 26.9619 72.0791 26.8526 71.353 26.6341C70.6269 26.415 69.9872 26.0866 69.4338 25.649C68.8805 25.2107 68.4424 24.6691 68.1195 24.0243C67.7967 23.3788 67.6353 22.6298 67.6353 21.7771C67.6353 20.8095 67.8139 19.9914 68.1713 19.3227C68.5287 18.6546 69.013 18.1017 69.6241 17.6641C70.2347 17.2258 70.9319 16.8858 71.7157 16.6441C72.4996 16.4017 73.3124 16.2231 74.154 16.1082C74.995 15.9927 75.8364 15.9236 76.678 15.901C77.5197 15.8778 78.2976 15.8661 79.0118 15.8661C79.0118 14.9444 78.6833 14.2129 78.0263 13.6717C77.3693 13.1298 76.5914 12.8589 75.6925 12.8589C74.8396 12.8589 74.0617 13.0375 73.3588 13.3948C72.6554 13.752 72.0269 14.2418 71.4736 14.864L68.7074 12.0291C69.676 11.1306 70.8056 10.4566 72.0964 10.007C73.3871 9.55742 74.724 9.33263 76.1071 9.33263C77.629 9.33263 78.8795 9.52288 79.8588 9.90339C80.8386 10.2839 81.6225 10.8427 82.2104 11.5798C82.7983 12.3176 83.2075 13.2221 83.438 14.2933C83.6685 15.3651 83.7838 16.6039 83.7838 18.0098V26.5475H79.0118V24.4387ZM77.7323 19.1842C77.3404 19.1842 76.8505 19.2015 76.2626 19.236C75.6753 19.2712 75.1106 19.3691 74.5686 19.5299C74.0271 19.6912 73.5661 19.9333 73.1855 20.256C72.8049 20.5788 72.6145 21.0283 72.6145 21.6047C72.6145 22.2263 72.8799 22.6872 73.4107 22.9873C73.9408 23.2868 74.4938 23.4366 75.0698 23.4366C75.5773 23.4366 76.0672 23.3675 76.5395 23.2294C77.0119 23.0906 77.4327 22.8947 77.802 22.6417C78.1707 22.388 78.4647 22.0653 78.6839 21.6735C78.9025 21.2817 79.0118 20.8208 79.0118 20.2909V19.1842H77.7323Z" fill="#2490EB"/>
<path d="M87.0342 9.74798H92.2207V12.4445H92.2905C92.8438 11.4072 93.5008 10.6292 94.2614 10.1106C95.0221 9.59195 95.9787 9.33263 97.1312 9.33263C97.4309 9.33263 97.7305 9.34425 98.0301 9.36748C98.3297 9.39071 98.6063 9.43686 98.8601 9.50593V14.2415C98.4914 14.1266 98.1284 14.0402 97.771 13.9825C97.4136 13.9247 97.0389 13.8958 96.647 13.8958C95.6558 13.8958 94.872 14.034 94.2954 14.3102C93.7194 14.5871 93.2756 14.9733 92.9641 15.4687C92.6532 15.9641 92.4516 16.5574 92.3592 17.2487C92.2669 17.9401 92.2207 18.7004 92.2207 19.5299V26.5475H87.0342V9.74798Z" fill="#2490EB"/>
<path d="M101.73 9.74798H106.709V12.0291H106.779C106.94 11.7064 107.171 11.3839 107.471 11.0618C107.77 10.7391 108.127 10.4509 108.542 10.1972C108.957 9.94357 109.43 9.73605 109.96 9.57469C110.49 9.41332 111.066 9.33263 111.689 9.33263C112.864 9.33263 113.908 9.57469 114.818 10.0588C115.729 10.5429 116.415 11.3033 116.876 12.3399C117.475 11.2574 118.201 10.4854 119.054 10.0239C119.907 9.56307 120.956 9.33263 122.201 9.33263C123.33 9.33263 124.281 9.52288 125.053 9.90339C125.826 10.2839 126.437 10.8025 126.886 11.4593C127.336 12.1161 127.658 12.8881 127.854 13.7753C128.05 14.6625 128.148 15.6128 128.148 16.6262V26.5475H122.961V16.7646C122.961 15.981 122.794 15.307 122.46 14.7425C122.126 14.1781 121.532 13.8958 120.68 13.8958C120.08 13.8958 119.578 13.9938 119.175 14.1897C118.772 14.3856 118.449 14.6565 118.207 15.0025C117.965 15.3478 117.792 15.7509 117.688 16.2118C117.585 16.6727 117.533 17.1568 117.533 17.6641V26.5475H112.346V17.6641C112.346 17.364 112.335 16.9951 112.311 16.5574C112.288 16.1198 112.207 15.7051 112.069 15.3133C111.931 14.9215 111.706 14.5871 111.395 14.3102C111.084 14.034 110.629 13.8958 110.029 13.8958C109.36 13.8958 108.819 14.0167 108.404 14.2584C107.989 14.5008 107.672 14.8235 107.453 15.2266C107.234 15.6297 107.09 16.085 107.021 16.5923C106.951 17.099 106.917 17.6289 106.917 18.1821V26.5475H101.73V9.74798Z" fill="#2490EB"/>
<path d="M142.36 24.4387H142.291C141.715 25.3372 140.948 25.9824 139.992 26.3742C139.035 26.766 138.026 26.9619 136.966 26.9619C136.182 26.9619 135.427 26.8526 134.701 26.6341C133.975 26.415 133.335 26.0866 132.782 25.649C132.228 25.2107 131.79 24.6691 131.468 24.0243C131.145 23.3788 130.984 22.6298 130.984 21.7771C130.984 20.8095 131.163 19.9914 131.52 19.3227C131.877 18.6546 132.361 18.1017 132.972 17.6641C133.583 17.2258 134.28 16.8858 135.064 16.6441C135.848 16.4017 136.66 16.2231 137.502 16.1082C138.343 15.9927 139.185 15.9236 140.026 15.901C140.867 15.8778 141.646 15.8661 142.36 15.8661C142.36 14.9444 142.032 14.2129 141.375 13.6717C140.718 13.1298 139.94 12.8589 139.04 12.8589C138.187 12.8589 137.409 13.0375 136.707 13.3948C136.004 13.752 135.376 14.2418 134.822 14.864L132.056 12.0291C133.024 11.1306 134.153 10.4566 135.444 10.007C136.735 9.55742 138.073 9.33263 139.456 9.33263C140.977 9.33263 142.228 9.52288 143.207 9.90339C144.187 10.2839 144.971 10.8427 145.559 11.5798C146.146 12.3176 146.555 13.2221 146.786 14.2933C147.016 15.3651 147.131 16.6039 147.131 18.0098V26.5475H142.36V24.4387ZM141.081 19.1842C140.689 19.1842 140.199 19.2015 139.611 19.236C139.023 19.2712 138.458 19.3691 137.916 19.5299C137.375 19.6912 136.914 19.9333 136.533 20.256C136.153 20.5788 135.963 21.0283 135.963 21.6047C135.963 22.2263 136.228 22.6872 136.758 22.9873C137.288 23.2868 137.842 23.4366 138.418 23.4366C138.925 23.4366 139.415 23.3675 139.887 23.2294C140.36 23.0906 140.781 22.8947 141.15 22.6417C141.518 22.388 141.812 22.0653 142.032 21.6735C142.251 21.2817 142.36 20.8208 142.36 20.2909V19.1842H141.081Z" fill="#2490EB"/>
<path d="M80.2536 62.0005C79.0005 62.0005 77.5851 61.8925 76.0073 61.6765C75.143 61.5685 74.5488 61.3418 74.2247 60.9965C73.9 60.6505 73.7593 60.0889 73.8026 59.3115C73.954 57.1723 74.3108 54.5311 74.8729 51.3879C75.4345 48.2447 76.115 45.2148 76.9146 42.2983C77.066 41.7576 77.3687 41.3793 77.8228 41.1633C78.2763 40.9473 78.8705 40.8393 79.6054 40.8393C80.9238 40.8393 81.583 41.2067 81.583 41.9413C81.583 42.2439 81.5183 42.5896 81.3889 42.9783C80.8267 44.7068 80.2649 47.0241 79.7034 49.9299C79.1412 52.8352 78.7411 55.6057 78.5031 58.2416C79.1519 58.3063 79.8868 58.3386 80.7077 58.3386C84.4901 58.3386 87.316 57.1937 89.1852 54.9038C91.0544 52.6138 91.989 49.557 91.989 45.7331C91.989 43.1619 91.2542 41.1743 89.7844 39.7704C88.3153 38.3658 86.2407 37.6635 83.5605 37.6635C81.8314 37.6635 80.1185 37.9335 78.422 38.4735C76.7255 39.0141 75.1967 39.727 73.8356 40.6124C73.5542 40.807 73.2515 40.9043 72.9274 40.9043C72.5599 40.9043 72.2682 40.7477 72.0521 40.4344C71.8361 40.121 71.728 39.7377 71.728 39.2844C71.728 38.7657 71.8144 38.3388 71.9871 38.0035C72.1605 37.6688 72.4522 37.3612 72.8624 37.0805C74.3541 36.0652 76.105 35.2929 78.1149 34.7636C80.1242 34.2343 82.0584 33.9696 83.9176 33.9696C86.5538 33.9696 88.8338 34.4286 90.7577 35.3466C92.6809 36.2645 94.161 37.6095 95.198 39.3814C96.2356 41.1527 96.7545 43.2916 96.7545 45.7981C96.7545 49.06 96.1063 51.9062 94.8099 54.3368C93.5128 56.7673 91.6216 58.6523 89.1362 59.9915C86.6508 61.3308 83.6899 62.0005 80.2536 62.0005Z" fill="#FFA729"/>
<path d="M102.849 44.5977C101.941 44.5977 101.261 44.3874 100.806 43.9667C100.352 43.5454 100.125 42.9564 100.125 42.1998C100.125 41.4438 100.423 40.8119 101.018 40.3039C101.612 39.7966 102.352 39.5429 103.238 39.5429C104.038 39.5429 104.686 39.7372 105.183 40.1259C105.68 40.5152 105.928 41.0662 105.928 41.7788C105.928 42.6428 105.647 43.3288 105.086 43.8367C104.524 44.3441 103.778 44.5977 102.849 44.5977ZM102.589 62C101.185 62 100.164 61.5033 99.5261 60.51C98.8886 59.5161 98.5698 58.1981 98.5698 56.5562C98.5698 55.5842 98.6942 54.3366 98.9429 52.8134C99.191 51.2901 99.5098 49.8695 99.8992 48.5515C100.093 47.8602 100.352 47.3849 100.676 47.1256C101.001 46.8663 101.519 46.7366 102.233 46.7366C103.335 46.7366 103.886 47.104 103.886 47.8386C103.886 48.3786 103.681 49.6318 103.27 51.5984C102.751 53.9743 102.492 55.5836 102.492 56.4262C102.492 57.0748 102.578 57.5718 102.751 57.9171C102.924 58.2631 103.216 58.4361 103.626 58.4361C104.016 58.4361 104.502 58.1658 105.086 57.6252C105.669 57.0852 106.447 56.2319 107.419 55.0653C107.679 54.7626 107.971 54.6113 108.295 54.6113C108.575 54.6113 108.797 54.741 108.96 55.0003C109.122 55.2596 109.203 55.6162 109.203 56.0702C109.203 56.9342 108.998 57.6038 108.587 58.0791C106.447 60.693 104.448 62 102.589 62Z" fill="#FFA729"/>
<path d="M108.879 62C108.058 62 107.479 61.568 107.145 60.704C106.809 59.8401 106.642 58.4574 106.642 56.5562C106.642 53.7476 107.041 51.0794 107.841 48.5515C108.036 47.9249 108.355 47.4659 108.798 47.1746C109.241 46.8826 109.862 46.7366 110.662 46.7366C111.094 46.7366 111.396 46.7906 111.569 46.8986C111.742 47.0066 111.829 47.2119 111.829 47.5146C111.829 47.8606 111.667 48.6385 111.343 49.8485C111.126 50.7124 110.953 51.4684 110.824 52.1164C110.694 52.7644 110.586 53.5637 110.5 54.5143C111.213 52.6564 112.012 51.1441 112.898 49.9775C113.785 48.8109 114.655 47.9792 115.508 47.4826C116.362 46.9853 117.145 46.7366 117.858 46.7366C119.263 46.7366 119.966 47.4389 119.966 48.8435C119.966 49.1242 119.868 49.8048 119.673 50.8854C119.501 51.7494 119.414 52.2894 119.414 52.5054C119.414 53.2613 119.684 53.6393 120.225 53.6393C120.83 53.6393 121.608 53.164 122.559 52.2134C122.84 51.9327 123.132 51.7924 123.435 51.7924C123.715 51.7924 123.937 51.9167 124.099 52.1654C124.261 52.4134 124.342 52.7427 124.342 53.1534C124.342 53.9527 124.126 54.5793 123.694 55.0333C123.088 55.6599 122.38 56.1945 121.57 56.6372C120.76 57.0799 119.901 57.3012 118.993 57.3012C117.848 57.3012 116.978 57.0095 116.383 56.4262C115.789 55.8429 115.492 55.0546 115.492 54.0613C115.492 53.7367 115.525 53.4124 115.589 53.0884C115.633 52.6564 115.654 52.3647 115.654 52.2134C115.654 51.8681 115.535 51.6954 115.297 51.6954C114.973 51.6954 114.546 52.0571 114.017 52.7804C113.487 53.5043 112.963 54.4606 112.444 55.6492C111.926 56.8372 111.505 58.0901 111.18 59.4081C110.943 60.4234 110.667 61.1093 110.354 61.466C110.04 61.822 109.549 62 108.879 62Z" fill="#FFA729"/>
<path d="M135.785 54.6113C136.066 54.6113 136.287 54.741 136.449 55.0003C136.612 55.2596 136.693 55.6162 136.693 56.0702C136.693 56.9342 136.487 57.6038 136.077 58.0791C135.278 59.0511 134.148 59.9477 132.689 60.769C131.231 61.5897 129.669 62 128.005 62C125.736 62 123.974 61.3844 122.721 60.1531C121.468 58.9218 120.841 57.2368 120.841 55.0982C120.841 53.607 121.154 52.2187 121.781 50.9334C122.408 49.6482 123.278 48.6275 124.391 47.8715C125.504 47.1149 126.763 46.7366 128.167 46.7366C129.421 46.7366 130.426 47.1093 131.182 47.8546C131.938 48.6005 132.316 49.6108 132.316 50.8854C132.316 52.376 131.781 53.656 130.712 54.7253C129.642 55.7946 127.832 56.6425 125.282 57.2692C125.822 58.2631 126.849 58.7601 128.362 58.7601C129.334 58.7601 130.442 58.4198 131.684 57.7391C132.927 57.0585 134.002 56.1672 134.91 55.0653C135.169 54.7626 135.461 54.6113 135.785 54.6113ZM127.616 49.9125C126.816 49.9125 126.141 50.3771 125.59 51.3064C125.039 52.2351 124.763 53.3584 124.763 54.6763V54.7413C126.038 54.4386 127.043 53.985 127.778 53.3803C128.513 52.7757 128.88 52.0734 128.88 51.2734C128.88 50.8634 128.767 50.5341 128.54 50.2855C128.313 50.0368 128.005 49.9125 127.616 49.9125Z" fill="#FFA729"/>
<path d="M140.258 62C138.14 62 136.493 61.4007 135.315 60.202C134.137 59.0028 133.548 57.4202 133.548 55.4543C133.548 53.7043 133.894 52.1704 134.586 50.8525C135.277 49.5345 136.174 48.5192 137.276 47.8066C138.379 47.0933 139.535 46.7366 140.745 46.7366C141.934 46.7366 142.857 47.0879 143.516 47.7905C144.176 48.4925 144.506 49.3945 144.506 50.4964C144.506 51.4037 144.306 52.1707 143.905 52.7973C143.506 53.4233 142.982 53.7363 142.333 53.7363C141.923 53.7363 141.593 53.6393 141.345 53.4453C141.096 53.2507 140.972 52.9807 140.972 52.6353C140.972 52.484 140.993 52.311 141.037 52.1164C141.08 51.9217 141.112 51.7814 141.134 51.6954C141.242 51.3714 141.296 51.0688 141.296 50.7875C141.296 50.5068 141.226 50.2908 141.086 50.1395C140.945 49.9882 140.745 49.9125 140.485 49.9125C139.989 49.9125 139.524 50.1341 139.092 50.5774C138.659 51.0201 138.313 51.6194 138.055 52.3754C137.795 53.132 137.666 53.964 137.666 54.8713C137.666 57.3772 138.757 58.6301 140.94 58.6301C141.826 58.6301 142.782 58.3331 143.808 57.7391C144.835 57.1452 145.845 56.2539 146.839 55.0653C147.099 54.7626 147.39 54.6113 147.715 54.6113C147.995 54.6113 148.217 54.741 148.379 55.0003C148.541 55.2596 148.622 55.6162 148.622 56.0702C148.622 56.8909 148.417 57.5605 148.007 58.0791C146.991 59.3324 145.775 60.2994 144.36 60.98C142.944 61.66 141.577 62 140.258 62Z" fill="#FFA729"/>
<path d="M151.508 49.8155C151.464 50.8955 151.443 51.7381 151.443 52.3434C151.443 53.8987 151.524 55.1139 151.686 55.9892C151.848 56.8639 152.118 57.4902 152.496 57.8682C152.874 58.2468 153.398 58.4361 154.069 58.4361C154.414 58.4361 154.824 58.3281 155.3 58.1121C155.775 57.8955 156.208 57.6145 156.597 57.2692C156.835 57.0532 157.072 56.9452 157.311 56.9452C157.57 56.9452 157.781 57.0908 157.943 57.3822C158.105 57.6742 158.186 58.0255 158.186 58.4361C158.186 58.8461 158.105 59.2458 157.943 59.6351C157.781 60.0237 157.538 60.3477 157.213 60.607C156.089 61.5357 154.814 62 153.387 62C151.335 62 149.833 61.1414 148.882 59.4241C147.931 57.7068 147.456 55.4652 147.456 52.6994C147.456 51.7488 147.488 50.7875 147.553 49.8155H146.288C145.64 49.8155 145.203 49.6968 144.976 49.4595C144.748 49.2215 144.635 48.8432 144.635 48.3246C144.635 47.1153 145.121 46.5106 146.094 46.5106H147.942C148.309 44.134 148.871 41.9628 149.627 39.9969C150.383 38.0303 151.297 36.4637 152.367 35.2971C153.437 34.1305 154.587 33.5472 155.819 33.5472C156.727 33.5472 157.44 33.9468 157.959 34.7461C158.478 35.5461 158.737 36.5507 158.737 37.76C158.737 41.1092 157.332 44.026 154.523 46.5106H158.153C158.499 46.5106 158.748 46.5859 158.899 46.7366C159.05 46.888 159.126 47.1689 159.126 47.5796C159.126 49.0702 157.905 49.8155 155.463 49.8155H151.508ZM154.944 36.659C154.62 36.659 154.258 37.064 153.858 37.874C153.458 38.684 153.08 39.8072 152.723 41.2439C152.366 42.6805 152.069 44.2737 151.832 46.0237C153.107 44.9224 154.063 43.6857 154.701 42.3138C155.338 40.9418 155.657 39.6942 155.657 38.5709C155.657 37.2963 155.419 36.659 154.944 36.659Z" fill="#FFA729"/>
<path d="M156.788 16.1588H162.26V10.6886H165.528V16.1588H171V19.426H165.528V24.8962H162.26V19.426H156.788V16.1588Z" fill="#FFA729"/>
<path d="M148.063 4.36634H146.813V3.70047H150.101V4.36634H148.85V7.8549H148.063V4.36634ZM150.897 3.70047H152.098L153.217 6.88669H153.247L154.367 3.70047H155.567V7.8549H154.781V4.38612H154.76L153.55 7.8549H152.914L151.705 4.38612H151.684V7.8549H150.897V3.70047Z" fill="#2490EB"/>
</g>
<defs>
<clipPath id="clip0_71_5374">
<rect width="171" height="62" fill="white"/>
</clipPath>
</defs>
</svg>
