<svg width="227" height="82" viewBox="0 0 227 82" fill="none" xmlns="http://www.w3.org/2000/svg">
<g id="profarma-logo 1" clip-path="url(#clip0_313_1011)">
<g id="Layer_1">
<path id="Vector" d="M0 2.74316H12.073C13.7556 2.74316 15.3469 2.89555 16.8469 3.20032C18.346 3.50509 19.6539 4.03075 20.7703 4.77731C21.8876 5.5247 22.7752 6.53077 23.433 7.79553C24.0909 9.06028 24.4198 10.6526 24.4198 12.5726C24.4198 14.4618 24.1138 16.0467 23.5018 17.3273C22.8898 18.607 22.0485 19.628 20.9779 20.3903C19.9065 21.1518 18.6362 21.6928 17.167 22.0134C15.6987 22.3331 14.1074 22.493 12.3931 22.493H7.16023V35.1114H0V2.74316ZM7.16023 16.459H11.9341C12.577 16.459 13.1969 16.398 13.7939 16.2759C14.3909 16.1538 14.9262 15.9479 15.3998 15.6581C15.8742 15.3691 16.257 14.973 16.548 14.4697C16.8389 13.9665 16.9844 13.3341 16.9844 12.5726C16.9844 11.7496 16.7931 11.0865 16.4104 10.5833C16.0277 10.0809 15.5378 9.69265 14.9408 9.41861C14.3446 9.14374 13.6793 8.9681 12.9447 8.8917C12.2101 8.81613 11.5064 8.77835 10.8335 8.77835H7.16023V16.459Z" fill="white"/>
<path id="Vector_2" d="M28.0469 12.8926H34.932V16.4589H35.0233C35.7578 15.087 36.63 14.0581 37.6397 13.3722C38.6494 12.6862 39.9197 12.3433 41.4506 12.3433C41.8483 12.3433 42.246 12.3586 42.6437 12.3894C43.0415 12.4201 43.4088 12.4811 43.7456 12.5725V18.8356C43.2553 18.6836 42.7734 18.5694 42.2998 18.493C41.8254 18.4166 41.328 18.3784 40.8077 18.3784C39.492 18.3784 38.4514 18.5611 37.686 18.9265C36.9214 19.2928 36.3323 19.8035 35.9188 20.4587C35.506 21.1139 35.2384 21.8987 35.1158 22.813C34.9932 23.7273 34.932 24.7329 34.932 25.8299V35.1113H28.0469V12.8926Z" fill="white"/>
<path id="Vector_3" d="M45.0762 24.0013C45.0762 22.2341 45.3976 20.6343 46.0405 19.2018C46.6825 17.7693 47.5621 16.5424 48.6794 15.5209C49.7967 14.5003 51.1124 13.7156 52.6266 13.1666C54.1416 12.6177 55.7559 12.3433 57.4693 12.3433C59.1836 12.3433 60.7978 12.6177 62.312 13.1666C63.827 13.7156 65.1432 14.5003 66.2605 15.5209C67.3769 16.5424 68.2566 17.7693 68.8994 19.2018C69.5423 20.6343 69.8637 22.2341 69.8637 24.0013C69.8637 25.7693 69.5423 27.3696 68.8994 28.8021C68.2566 30.2346 67.3769 31.4615 66.2605 32.483C65.1432 33.5036 63.827 34.2883 62.312 34.8372C60.7978 35.3853 59.1836 35.6594 57.4693 35.6594C55.7559 35.6594 54.1416 35.3853 52.6266 34.8372C51.1124 34.2883 49.7967 33.5036 48.6794 32.483C47.5621 31.4615 46.6825 30.2346 46.0405 28.8021C45.3976 27.3696 45.0762 25.7693 45.0762 24.0013ZM51.9613 24.0013C51.9613 25.678 52.4432 27.0345 53.4071 28.0709C54.3709 29.1072 55.725 29.6254 57.4693 29.6254C59.2136 29.6254 60.5681 29.1072 61.5328 28.0709C62.4967 27.0345 62.9786 25.678 62.9786 24.0013C62.9786 22.3255 62.4967 20.9694 61.5328 19.933C60.5681 18.8966 59.2136 18.3784 57.4693 18.3784C55.725 18.3784 54.3709 18.8966 53.4071 19.933C52.4432 20.9694 51.9613 22.3255 51.9613 24.0013Z" fill="white"/>
<path id="Vector_4" d="M76.2899 18.3783H71.7461V12.8925H76.2899V8.96122C76.2899 7.74131 76.397 6.59074 76.6113 5.50952C76.8256 4.42746 77.2387 3.47495 77.8507 2.65199C78.4627 1.82903 79.3424 1.18129 80.4897 0.708776C81.6378 0.236259 83.1449 0 85.011 0C85.7155 0 86.4042 0.0303109 87.0771 0.0909326C87.75 0.152385 88.4079 0.259096 89.0507 0.411065L88.7293 6.21705C88.3316 6.06508 87.9643 5.95089 87.6274 5.87449C87.2914 5.79809 86.9091 5.75989 86.4805 5.75989C85.3791 5.75989 84.5528 5.99615 84.0017 6.46867C83.4505 6.94118 83.1749 7.90906 83.1749 9.37228V12.8925H88.2703V18.3783H83.1749V35.1112H76.2899V18.3783Z" fill="white"/>
<path id="Vector_5" d="M104.887 32.3223H104.796C104.031 33.5106 103.013 34.3639 101.743 34.8821C100.473 35.4003 99.1345 35.6594 97.7271 35.6594C96.6865 35.6594 95.6843 35.5149 94.7204 35.2259C93.7565 34.9361 92.9073 34.5017 92.1727 33.9229C91.4382 33.3433 90.8566 32.627 90.428 31.7742C89.9994 30.9205 89.7852 29.9298 89.7852 28.8021C89.7852 27.5224 90.0224 26.4403 90.4968 25.5559C90.9712 24.6723 91.6141 23.9411 92.4254 23.3623C93.2358 22.7827 94.1613 22.333 95.2019 22.0133C96.2425 21.6927 97.3214 21.4564 98.4387 21.3045C99.5552 21.1517 100.672 21.0603 101.789 21.0304C102.907 20.9997 103.939 20.9843 104.887 20.9843C104.887 19.7653 104.451 18.7978 103.579 18.082C102.707 17.3653 101.674 17.007 100.481 17.007C99.3488 17.007 98.3161 17.2432 97.3831 17.7158C96.4493 18.1883 95.6151 18.836 94.8805 19.659L91.2084 15.9096C92.4942 14.7212 93.9937 13.8297 95.7072 13.2351C97.4207 12.6406 99.1954 12.3433 101.031 12.3433C103.052 12.3433 104.712 12.5949 106.012 13.0981C107.312 13.6014 108.353 14.3405 109.133 15.3154C109.914 16.2911 110.457 17.4874 110.763 18.9041C111.069 20.3217 111.222 21.9601 111.222 23.8194V35.1113H104.887V32.3223ZM103.189 25.3728C102.669 25.3728 102.018 25.3956 101.238 25.4413C100.458 25.4878 99.7086 25.6173 98.989 25.8299C98.2703 26.0434 97.6583 26.3635 97.153 26.7903C96.6477 27.2172 96.3951 27.8118 96.3951 28.5741C96.3951 29.3962 96.7474 30.0058 97.4519 30.4027C98.1556 30.7988 98.8898 30.9969 99.6544 30.9969C100.328 30.9969 100.978 30.9055 101.605 30.7229C102.232 30.5393 102.791 30.2802 103.281 29.9456C103.771 29.6101 104.161 29.1832 104.452 28.665C104.742 28.1468 104.887 27.5373 104.887 26.8364V25.3728H103.189Z" fill="white"/>
<path id="Vector_6" d="M115.537 12.8926H122.422V16.4589H122.514C123.249 15.087 124.121 14.0581 125.131 13.3722C126.14 12.6862 127.41 12.3433 128.94 12.3433C129.338 12.3433 129.736 12.3586 130.133 12.3894C130.531 12.4201 130.899 12.4811 131.235 12.5725V18.8356C130.746 18.6836 130.264 18.5694 129.79 18.493C129.315 18.4166 128.818 18.3784 128.297 18.3784C126.982 18.3784 125.941 18.5611 125.176 18.9265C124.411 19.2928 123.822 19.8035 123.408 20.4587C122.996 21.1139 122.728 21.8987 122.606 22.813C122.483 23.7273 122.422 24.7329 122.422 25.8299V35.1113H115.537V12.8926Z" fill="white"/>
<path id="Vector_7" d="M135.045 12.8926H141.655V15.9096H141.747C141.962 15.4827 142.268 15.0563 142.665 14.6303C143.063 14.2034 143.537 13.8223 144.087 13.4868C144.639 13.1513 145.266 12.8768 145.97 12.6634C146.673 12.45 147.438 12.3433 148.265 12.3433C149.826 12.3433 151.211 12.6634 152.42 13.3037C153.629 13.9439 154.539 14.9496 155.151 16.3206C155.947 14.889 156.91 13.8679 158.043 13.2576C159.175 12.648 160.567 12.3433 162.22 12.3433C163.719 12.3433 164.981 12.5949 166.006 13.0981C167.031 13.6014 167.843 14.2873 168.44 15.1559C169.036 16.0246 169.464 17.0456 169.724 18.219C169.984 19.3924 170.114 20.6493 170.114 21.9896V35.1113H163.229V22.1727C163.229 21.1363 163.008 20.2448 162.564 19.4983C162.12 18.7517 161.332 18.3784 160.2 18.3784C159.404 18.3784 158.738 18.508 158.203 18.7671C157.668 19.0262 157.239 19.3845 156.918 19.8421C156.596 20.2988 156.367 20.832 156.229 21.4415C156.092 22.051 156.023 22.6913 156.023 23.3623V35.1113H149.138V23.3623C149.138 22.9653 149.122 22.4775 149.091 21.8987C149.061 21.3198 148.953 20.7713 148.77 20.2531C148.587 19.735 148.288 19.2928 147.875 18.9265C147.462 18.5611 146.858 18.3784 146.062 18.3784C145.174 18.3784 144.455 18.5383 143.905 18.858C143.354 19.1786 142.933 19.6054 142.642 20.1385C142.351 20.6717 142.161 21.2738 142.069 21.9447C141.976 22.6149 141.93 23.3158 141.93 24.0474V35.1113H135.045V12.8926Z" fill="white"/>
<path id="Vector_8" d="M188.982 32.3223H188.889C188.124 33.5106 187.107 34.3639 185.837 34.8821C184.567 35.4003 183.228 35.6594 181.82 35.6594C180.779 35.6594 179.777 35.5149 178.813 35.2259C177.85 34.9361 177 34.5017 176.266 33.9229C175.531 33.3433 174.95 32.627 174.522 31.7742C174.094 30.9205 173.879 29.9298 173.879 28.8021C173.879 27.5224 174.117 26.4403 174.591 25.5559C175.065 24.6723 175.708 23.9411 176.518 23.3623C177.33 22.7827 178.256 22.333 179.296 22.0133C180.336 21.6927 181.414 21.4564 182.532 21.3045C183.649 21.1517 184.766 21.0603 185.882 21.0304C187 20.9997 188.033 20.9843 188.982 20.9843C188.982 19.7653 188.545 18.7978 187.673 18.082C186.801 17.3653 185.768 17.007 184.574 17.007C183.442 17.007 182.409 17.2432 181.476 17.7158C180.543 18.1883 179.709 18.836 178.975 19.659L175.303 15.9096C176.588 14.7212 178.087 13.8297 179.8 13.2351C181.514 12.6406 183.29 12.3433 185.126 12.3433C187.145 12.3433 188.805 12.5949 190.106 13.0981C191.407 13.6014 192.447 14.3405 193.228 15.3154C194.007 16.2911 194.55 17.4874 194.856 18.9041C195.162 20.3217 195.315 21.9601 195.315 23.8194V35.1113H188.982V32.3223ZM187.283 25.3728C186.763 25.3728 186.112 25.3956 185.332 25.4413C184.552 25.4878 183.802 25.6173 183.082 25.8299C182.363 26.0434 181.751 26.3635 181.246 26.7903C180.742 27.2172 180.489 27.8118 180.489 28.5741C180.489 29.3962 180.841 30.0058 181.545 30.4027C182.249 30.7988 182.983 30.9969 183.749 30.9969C184.422 30.9969 185.071 30.9055 185.698 30.7229C186.326 30.5393 186.885 30.2802 187.374 29.9456C187.864 29.6101 188.254 29.1832 188.545 28.665C188.836 28.1468 188.982 27.5373 188.982 26.8364V25.3728H187.283Z" fill="white"/>
<path id="Vector_9" d="M106.535 82.0008C104.872 82.0008 102.993 81.858 100.898 81.5723C99.7511 81.4295 98.9623 81.1297 98.5321 80.673C98.101 80.2154 97.9143 79.4726 97.9718 78.4445C98.1727 75.6152 98.6463 72.122 99.3926 67.9648C100.138 63.8077 101.041 59.8004 102.103 55.943C102.304 55.228 102.706 54.7277 103.309 54.442C103.911 54.1564 104.699 54.0135 105.675 54.0135C107.425 54.0135 108.3 54.4993 108.3 55.4709C108.3 55.8712 108.214 56.3284 108.042 56.8424C107.296 59.1286 106.55 62.1933 105.805 66.0365C105.059 69.879 104.528 73.5433 104.212 77.0294C105.073 77.115 106.048 77.1577 107.138 77.1577C112.159 77.1577 115.911 75.6434 118.392 72.6148C120.873 69.5862 122.114 65.5433 122.114 60.4859C122.114 57.0853 121.138 54.4566 119.187 52.5997C117.237 50.742 114.483 49.8132 110.925 49.8132C108.63 49.8132 106.356 50.1703 104.104 50.8844C101.852 51.5994 99.8224 52.5424 98.0156 53.7133C97.642 53.9707 97.2401 54.0995 96.8099 54.0995C96.3221 54.0995 95.9348 53.8923 95.648 53.4779C95.3612 53.0635 95.2178 52.5565 95.2178 51.9569C95.2178 51.271 95.3324 50.7063 95.5617 50.2629C95.7918 49.8202 96.1791 49.4133 96.7236 49.0421C98.7039 47.6993 101.028 46.6779 103.696 45.9778C106.364 45.2778 108.931 44.9277 111.399 44.9277C114.899 44.9277 117.925 45.5348 120.479 46.7489C123.032 47.963 124.997 49.7418 126.374 52.0852C127.751 54.4279 128.44 57.2568 128.44 60.5719C128.44 64.886 127.58 68.6503 125.859 71.865C124.137 75.0796 121.626 77.5725 118.327 79.3438C115.028 81.1152 111.097 82.0008 106.535 82.0008Z" fill="#FFA729"/>
<path id="Vector_10" d="M136.531 58.9842C135.326 58.9842 134.422 58.706 133.819 58.1497C133.216 57.5924 132.915 56.8135 132.915 55.8128C132.915 54.813 133.31 53.9771 134.099 53.3053C134.888 52.6343 135.871 52.2988 137.047 52.2988C138.109 52.2988 138.969 52.5558 139.629 53.0699C140.288 53.5848 140.618 54.3135 140.618 55.256C140.618 56.3987 140.245 57.3059 139.5 57.9778C138.754 58.6487 137.764 58.9842 136.531 58.9842ZM136.186 82.0001C134.321 82.0001 132.966 81.3433 132.12 80.0295C131.273 78.7149 130.85 76.9719 130.85 74.8003C130.85 73.5148 131.015 71.8647 131.345 69.8501C131.675 67.8354 132.098 65.9566 132.615 64.2135C132.872 63.2992 133.216 62.6705 133.647 62.3276C134.077 61.9846 134.766 61.8131 135.713 61.8131C137.176 61.8131 137.908 62.2989 137.908 63.2705C137.908 63.9847 137.635 65.6422 137.09 68.2432C136.401 71.3855 136.057 73.5139 136.057 74.6284C136.057 75.4862 136.171 76.1435 136.401 76.6002C136.631 77.0578 137.018 77.2866 137.563 77.2866C138.08 77.2866 138.725 76.9291 139.5 76.2141C140.275 75.4999 141.307 74.3714 142.598 72.8284C142.942 72.4281 143.33 72.228 143.76 72.228C144.132 72.228 144.427 72.3995 144.643 72.7425C144.858 73.0854 144.965 73.5571 144.965 74.1575C144.965 75.3002 144.693 76.1859 144.147 76.8145C141.307 80.2716 138.653 82.0001 136.186 82.0001Z" fill="#FFA729"/>
<path id="Vector_11" d="M144.535 82C143.445 82 142.677 81.4287 142.233 80.286C141.788 79.1433 141.565 77.3147 141.565 74.8001C141.565 71.0856 142.096 67.5567 143.157 64.2134C143.416 63.3846 143.839 62.7775 144.428 62.3922C145.016 62.0061 145.84 61.813 146.902 61.813C147.475 61.813 147.877 61.8844 148.106 62.0272C148.336 62.1701 148.451 62.4416 148.451 62.8419C148.451 63.2995 148.236 64.3284 147.806 65.9286C147.518 67.0713 147.289 68.0711 147.117 68.9281C146.945 69.7852 146.802 70.8423 146.687 72.0996C147.633 69.6423 148.694 67.6422 149.871 66.0993C151.047 64.5563 152.202 63.4564 153.335 62.7995C154.468 62.1418 155.508 61.813 156.454 61.813C158.32 61.813 159.252 62.7418 159.252 64.5995C159.252 64.9707 159.123 65.8709 158.865 67.3001C158.635 68.4428 158.521 69.1569 158.521 69.4426C158.521 70.4424 158.879 70.9424 159.596 70.9424C160.4 70.9424 161.433 70.3137 162.695 69.0565C163.068 68.6852 163.455 68.4996 163.857 68.4996C164.23 68.4996 164.524 68.6641 164.739 68.9929C164.954 69.3209 165.062 69.7565 165.062 70.2996C165.062 71.3568 164.775 72.1855 164.201 72.7859C163.397 73.6147 162.458 74.3218 161.382 74.9073C160.307 75.4927 159.166 75.7855 157.962 75.7855C156.441 75.7855 155.286 75.3997 154.497 74.6283C153.708 73.8568 153.314 72.8142 153.314 71.5004C153.314 71.0711 153.357 70.6422 153.443 70.2137C153.5 69.6423 153.529 69.2566 153.529 69.0565C153.529 68.5997 153.371 68.3713 153.055 68.3713C152.625 68.3713 152.058 68.8497 151.355 69.8063C150.652 70.7638 149.957 72.0286 149.268 73.6006C148.58 75.1718 148.021 76.8289 147.59 78.572C147.274 79.9148 146.909 80.822 146.493 81.2937C146.077 81.7646 145.424 82 144.535 82Z" fill="#FFA729"/>
<path id="Vector_12" d="M180.253 72.2279C180.625 72.2279 180.919 72.3994 181.134 72.7423C181.349 73.0853 181.457 73.557 181.457 74.1574C181.457 75.3001 181.185 76.1857 180.64 76.8144C179.579 78.0999 178.08 79.2857 176.143 80.372C174.207 81.4573 172.134 82 169.924 82C166.912 82 164.574 81.1858 162.91 79.5573C161.246 77.9288 160.414 75.7003 160.414 72.8719C160.414 70.8996 160.83 69.0635 161.662 67.3636C162.494 65.6637 163.649 64.3138 165.127 63.314C166.604 62.3133 168.275 61.813 170.139 61.813C171.804 61.813 173.138 62.3059 174.142 63.2916C175.146 64.2781 175.648 65.6143 175.648 67.3001C175.648 69.2715 174.938 70.9644 173.518 72.3786C172.098 73.7928 169.695 74.9143 166.31 75.7431C167.027 77.0577 168.39 77.715 170.398 77.715C171.689 77.715 173.159 77.2649 174.808 76.3647C176.458 75.4645 177.886 74.2857 179.091 72.8283C179.435 72.428 179.822 72.2279 180.253 72.2279ZM169.408 66.0133C168.346 66.0133 167.45 66.6278 166.719 67.8569C165.987 69.0851 165.621 70.5708 165.621 72.3138V72.3998C167.313 71.9995 168.647 71.3995 169.623 70.5998C170.598 69.8001 171.086 68.8713 171.086 67.8133C171.086 67.271 170.936 66.8355 170.635 66.5066C170.334 66.1777 169.925 66.0133 169.408 66.0133Z" fill="#FFA729"/>
<path id="Vector_13" d="M186.191 82C183.38 82 181.192 81.2074 179.629 79.6221C178.065 78.0359 177.284 75.9428 177.284 73.3427C177.284 71.0283 177.743 68.9996 178.661 67.2565C179.579 65.5134 180.769 64.1706 182.233 63.228C183.696 62.2847 185.231 61.813 186.837 61.813C188.415 61.813 189.641 62.2776 190.516 63.2069C191.392 64.1353 191.829 65.3282 191.829 66.7856C191.829 67.9856 191.564 69 191.033 69.8288C190.502 70.6567 189.806 71.0707 188.945 71.0707C188.401 71.0707 187.963 70.9424 187.633 70.6858C187.303 70.4283 187.138 70.0712 187.138 69.6145C187.138 69.4144 187.167 69.1856 187.224 68.9281C187.282 68.6707 187.325 68.4851 187.353 68.3713C187.496 67.9428 187.568 67.5426 187.568 67.1705C187.568 66.7993 187.475 66.5137 187.289 66.3135C187.102 66.1134 186.837 66.0133 186.493 66.0133C185.833 66.0133 185.216 66.3065 184.643 66.8928C184.068 67.4782 183.609 68.2709 183.266 69.2707C182.921 70.2714 182.749 71.3717 182.749 72.5717C182.749 75.8859 184.198 77.5431 187.095 77.5431C188.272 77.5431 189.541 77.1503 190.904 76.3647C192.266 75.5791 193.607 74.4003 194.927 72.8283C195.272 72.428 195.659 72.2279 196.089 72.2279C196.462 72.2279 196.756 72.3994 196.971 72.7423C197.186 73.0853 197.294 73.557 197.294 74.1574C197.294 75.2428 197.021 76.1284 196.477 76.8144C195.129 78.4719 193.515 79.7508 191.635 80.651C189.756 81.5503 187.941 82 186.191 82Z" fill="#FFA729"/>
<path id="Vector_14" d="M201.124 65.8848C201.067 67.3131 201.038 68.4276 201.038 69.2281C201.038 71.2851 201.146 72.8924 201.361 74.05C201.576 75.2068 201.934 76.0352 202.436 76.5351C202.938 77.0359 203.634 77.2862 204.524 77.2862C204.982 77.2862 205.527 77.1434 206.158 76.8577C206.79 76.5712 207.364 76.1996 207.881 75.7429C208.196 75.4572 208.511 75.3144 208.827 75.3144C209.172 75.3144 209.451 75.507 209.667 75.8924C209.882 76.2785 209.989 76.7431 209.989 77.2862C209.989 77.8285 209.882 78.3571 209.667 78.872C209.451 79.386 209.129 79.8145 208.699 80.1575C207.206 81.3857 205.513 81.9998 203.619 81.9998C200.895 81.9998 198.901 80.8642 197.639 78.5929C196.376 76.3217 195.745 73.357 195.745 69.699C195.745 68.4417 195.788 67.1703 195.874 65.8848H194.195C193.335 65.8848 192.754 65.7278 192.453 65.4139C192.151 65.0992 192 64.5989 192 63.9129C192 62.3135 192.646 61.5138 193.938 61.5138H196.39C196.878 58.3706 197.624 55.499 198.628 52.8989C199.632 50.298 200.844 48.226 202.265 46.6831C203.685 45.1401 205.212 44.3687 206.847 44.3687C208.052 44.3687 208.999 44.8972 209.688 45.9544C210.377 47.0123 210.721 48.341 210.721 49.9405C210.721 54.37 208.856 58.2278 205.127 61.5138H209.945C210.405 61.5138 210.735 61.6135 210.936 61.8128C211.137 62.0129 211.237 62.3845 211.237 62.9276C211.237 64.8991 209.617 65.8848 206.375 65.8848H201.124ZM205.686 48.4843C205.255 48.4843 204.775 49.0199 204.244 50.0912C203.713 51.1624 203.211 52.6481 202.738 54.5481C202.264 56.4482 201.87 58.5554 201.555 60.8698C203.247 59.4132 204.517 57.7777 205.363 55.9632C206.209 54.1487 206.632 52.4986 206.632 51.013C206.632 49.3272 206.317 48.4843 205.686 48.4843Z" fill="#FFA729"/>
<path id="Vector_15" d="M208.133 21.3715H215.397V14.1367H219.736V21.3715H227V25.6926H219.736V32.9274H215.397V25.6926H208.133V21.3715Z" fill="#FFA729"/>
<path id="Vector_16" d="M196.552 5.77472H194.892V4.89404H199.257V5.77472H197.596V10.3886H196.552V5.77472ZM200.314 4.89404H201.907L203.393 9.10808H203.433L204.92 4.89404H206.514V10.3886H205.469V5.80088H205.442L203.836 10.3886H202.992L201.386 5.80088H201.358V10.3886H200.314V4.89404Z" fill="white"/>
</g>
</g>
<defs>
<clipPath id="clip0_313_1011">
<rect width="227" height="82" fill="white"/>
</clipPath>
</defs>
</svg>
