<svg width="24" height="24" viewBox="0 0 24 24" fill="none" xmlns="http://www.w3.org/2000/svg">
<path d="M8.7724 2.20434C8.49994 1.93189 8.0582 1.93189 7.78574 2.20434C7.51328 2.4768 7.51328 2.91855 7.78574 3.191L10.3157 5.72093H2.69767C2.31236 5.72093 2 6.03329 2 6.4186V10.1395C2 10.5248 2.31236 10.8372 2.69767 10.8372H3.39535V21.3023C3.39535 21.6876 3.70771 22 4.09302 22H19.907C20.2923 22 20.6047 21.6876 20.6047 21.3023V10.8372H21.3023C21.6876 10.8372 22 10.5248 22 10.1395V6.4186C22 6.03329 21.6876 5.72093 21.3023 5.72093H13.6843L16.2143 3.191C16.4867 2.91855 16.4867 2.4768 16.2143 2.20434C15.9418 1.93189 15.5001 1.93189 15.2276 2.20434L12 5.43194L8.7724 2.20434ZM12.6977 20.6047H11.3023V10.8372H12.6977V20.6047Z" fill="#FFA729"/>
</svg>
