<svg width="40" height="40" viewBox="0 0 40 40" fill="none" xmlns="http://www.w3.org/2000/svg">
<path fill-rule="evenodd" clip-rule="evenodd" d="M23.7247 14.9763C23.9279 14.7723 23.9707 14.4627 23.8811 14.1891C23.4117 12.7568 23.9064 10.9207 25.2677 9.55944C27.0595 7.76767 29.674 7.47717 31.1074 8.91058C32.5408 10.344 32.2503 12.9585 30.4585 14.7503C29.1135 16.0953 27.3049 16.5944 25.8802 16.1533C25.6091 16.0694 25.3051 16.1151 25.1048 16.3161L24.9448 16.4767C24.4729 16.9838 23.8087 17.2625 23.1321 17.2373L20.9826 17.157C19.3401 17.0957 18.1108 18.7503 18.6554 20.2893L18.838 20.8051C19.6985 23.2365 17.7418 25.8463 15.1488 25.7259L13.8393 25.6651C13.1937 25.6351 12.6743 26.2332 12.7953 26.8672L13.0025 27.9528C13.3267 29.6519 12.1088 31.3168 10.3796 31.5383L9.40594 31.6631C8.85559 31.7336 8.35682 31.3328 8.30722 30.7801C8.26022 30.2564 8.63568 29.7891 9.1573 29.7223L10.2045 29.5882C10.7809 29.5143 11.1869 28.9593 11.0788 28.393L10.8716 27.3073C10.5086 25.4053 12.0669 23.6111 14.0036 23.7011L15.3131 23.7619C16.4918 23.8166 17.3812 22.6303 16.9901 21.5251L16.8075 21.0093C15.796 18.1513 18.0791 15.0783 21.1293 15.1922L23.2788 15.2725C23.3755 15.2761 23.4703 15.2363 23.5377 15.1638L23.7247 14.9763Z" fill="#2490EB"/>
</svg>
