<svg width="129" height="136" viewBox="0 0 129 136" fill="none" xmlns="http://www.w3.org/2000/svg">
<g clip-path="url(#clip0_53_5817)">
<g clip-path="url(#clip1_53_5817)">
<g opacity="0.3">
<path d="M66.2749 88.377C65.0803 86.5907 65.0803 86.5907 66.2749 88.377L93.2565 54.8228C95.0538 53.6209 95.0538 53.6209 96.2484 55.4072L110.594 69.0805C119.559 78.5966 120.139 91.1339 111.745 101.918C102.155 110.916 89.5853 111.566 78.8233 103.252L66.2749 88.377ZM93.8482 59.5974L68.0722 87.1751L81.2233 99.062C88.9934 106.792 100.369 104.355 106.364 97.761C114.156 89.9651 111.778 78.6296 105.202 72.6861L93.8482 59.5974Z" fill="#F2F6F9"/>
<path d="M45.3667 60.9997L38.2102 42.5189C36.4238 35.958 35.832 31.1834 38.8348 24.005C40.0403 18.0285 45.4323 14.4228 50.8243 10.8171C57.4108 8.99774 62.1999 8.3803 69.3782 11.3354C75.362 12.5043 78.9456 17.8633 82.5293 23.2223L89.6858 41.7031C89.6858 41.7031 89.6858 41.7031 90.8804 43.4895L89.0831 44.6914L50.1558 60.3822C48.3585 61.5841 48.3586 61.5841 45.3667 60.9997ZM74.7483 23.2553C72.3592 19.6827 71.1647 17.8963 66.9782 15.5256C62.7918 13.1548 58.0026 13.7723 53.2134 14.3897C49.6188 16.7936 44.2267 20.3993 43.624 23.3876C41.2239 27.5777 41.8158 32.3522 42.4077 37.1268L49.564 55.6077L83.7021 40.5342L77.7402 23.8398C75.9429 25.0417 74.7483 23.2553 74.7483 23.2553Z" fill="#F2F6F9"/>
<path d="M50.1474 68.1492L45.9719 58.0156C45.9719 58.0156 47.7692 56.8138 49.5665 55.6119L84.8991 42.3248C86.6965 41.1229 87.891 42.9092 87.891 42.9092L90.872 51.2564C90.872 51.2564 90.872 51.2564 92.0665 53.0428L90.2691 54.2447L54.9366 67.5318C53.1392 68.7337 51.342 69.9355 50.1474 68.1492ZM51.9556 59.1845L52.5474 63.9591L83.0908 51.2895L82.499 46.515L51.9556 59.1845Z" fill="#F2F6F9"/>
<path d="M42.9419 80.7125C41.7473 78.9261 41.7474 78.9261 43.5447 77.7242L48.9366 74.1185C50.7339 72.9166 50.7339 72.9166 51.9284 74.7029C53.123 76.4893 53.123 76.4893 51.3257 77.6912L45.9339 81.2968C44.1366 82.4987 42.9419 80.7125 42.9419 80.7125Z" fill="#F2F6F9"/>
<path d="M40.532 92.6657C39.3374 90.8794 39.3374 90.8794 41.1347 89.6775L48.324 84.8699C50.1213 83.668 50.1213 83.668 51.3159 85.4543C52.5104 87.2406 52.5104 87.2406 50.7131 88.4425L43.5239 93.2502C43.5239 93.2502 41.7266 94.4521 40.532 92.6657Z" fill="#F2F6F9"/>
<path d="M55.517 80.0694C54.3225 78.2831 54.3226 78.283 56.1199 77.0811L57.9172 75.8792C59.7145 74.6773 59.7145 74.6773 60.909 76.4637C62.1036 78.25 62.1036 78.25 60.3063 79.4519L58.509 80.6538C59.7036 82.4401 56.7116 81.8558 55.517 80.0694Z" fill="#F2F6F9"/>
<path d="M31.5781 75.3869C30.3836 73.6006 30.3835 73.6006 32.1809 72.3987L35.7754 69.9949C37.5727 68.793 37.5729 68.793 38.7674 70.5793C39.962 72.3656 39.9619 72.3657 38.1646 73.5676L34.57 75.9714L31.5781 75.3869Z" fill="#F2F6F9"/>
<path d="M39.9223 103.424C38.7278 101.638 38.7278 101.638 40.5251 100.436L45.9171 96.8304C47.7144 95.6285 47.7144 95.6285 48.9089 97.4149C50.1035 99.2012 50.1035 99.2012 48.3062 100.403L42.9142 104.009C42.9142 104.009 41.1169 105.211 39.9223 103.424Z" fill="#F2F6F9"/>
<path d="M29.166 87.3387C27.9715 85.5524 27.9714 85.5524 29.7687 84.3505L33.3635 81.9466C35.1608 80.7447 35.1607 80.7447 36.3553 82.5311C37.5499 84.3174 37.5499 84.3174 35.7526 85.5193L32.1579 87.9232C32.1579 87.9232 30.3606 89.125 29.166 87.3387Z" fill="#F2F6F9"/>
<path d="M65.1084 71.0732C63.9138 69.2869 63.9138 69.2869 65.7111 68.085L67.5084 66.8831C69.3057 65.6812 69.3057 65.6813 70.5002 67.4676C71.6948 69.2539 71.6948 69.2539 69.8975 70.4558L68.1002 71.6577C66.3029 72.8596 65.1084 71.0732 65.1084 71.0732Z" fill="#F2F6F9"/>
</g>
</g>
</g>
<defs>
<clipPath id="clip0_53_5817">
<rect width="129" height="136" fill="white"/>
</clipPath>
<clipPath id="clip1_53_5817">
<rect width="129" height="136" fill="white"/>
</clipPath>
</defs>
</svg>
