<svg xmlns="http://www.w3.org/2000/svg" width="144" height="136" viewBox="0 0 144 136" fill="none">
    <mask id="mask0_24_2265" style="mask-type:luminance" maskUnits="userSpaceOnUse" x="0" y="0" width="144" height="136">
        <path d="M143.112 69.7291L47.7441 0.5L-3.89514e-05 66.2709L95.3678 135.5L143.112 69.7291Z" fill="white"/>
    </mask>
    <g mask="url(#mask0_24_2265)">
        <path d="M33.077 20.7294C34.7246 18.2453 37.0234 16.362 39.5944 15.1132C44.2901 12.8313 50.5649 12.9383 54.806 17.795C57.2796 20.6283 59.6426 23.5842 61.0005 27.2084C61.6588 28.9661 62.5844 30.6324 63.4897 32.2859C65.7467 36.4053 67.0832 40.9 68.3079 45.3589C69.401 49.3424 70.6718 53.309 71.428 57.3687C71.9301 60.0606 71.8408 62.8726 71.9032 65.6332C71.9335 66.9508 71.1866 67.6432 69.8352 67.9283C69.7125 67.9534 69.587 67.9825 69.4631 67.985C64.303 68.071 59.725 70.3536 54.9241 71.8089C52.282 72.6102 49.614 73.3415 46.9245 73.9667C45.1585 74.3781 44.0691 73.6916 43.398 71.9462C41.9542 68.1908 40.5913 64.4053 39.1273 60.6588C37.9848 57.7363 36.8302 54.8444 36.0121 51.7873C35.4057 49.5238 34.079 47.4305 32.9255 45.3428C32.1149 43.8762 31.6342 42.4029 31.4955 40.7191C31.2565 37.8382 31.0041 34.9298 30.3866 32.1147C29.4453 27.8163 30.7313 24.1778 33.077 20.7294ZM47.5754 68.7151C49.7014 69.075 51.309 68.8086 52.8607 68.2476C56.4108 66.9633 59.9485 65.6445 63.4749 64.2978C64.0495 64.0788 64.5152 63.5919 65.0752 63.317C67.2432 62.2543 67.8265 60.3897 67.4057 58.2452C66.6824 54.5499 66.0751 50.7873 64.8772 47.2359C62.5518 40.3397 60.5017 33.287 56.2483 27.2045C55.9616 26.7935 55.6884 26.3452 55.539 25.8725C54.5067 22.6165 51.95 20.8039 49.2408 19.1227C47.4038 17.9822 45.4696 17.9033 43.4203 18.4497C41.38 18.9947 39.9704 20.421 38.3885 21.6749C35.3178 24.1086 34.1502 27.3507 34.504 31.0336C34.9846 36.0373 35.6787 40.9912 37.9399 45.661C40.2396 50.4081 42.5214 55.1853 44.1869 60.2282C45.1284 63.0854 46.4073 65.8253 47.5754 68.7151Z" fill="#2490EB" fill-opacity="0.2"/>
        <path d="M77.131 69.9934C81.5283 67.4952 86.1276 65.3497 91.2291 64.0578C95.3944 63.0034 99.571 62.3158 103.792 61.7021C110.293 60.7564 116.849 60.2893 123.387 60.4868C127.907 60.6234 132.373 61.8468 136.115 64.6522C138.051 66.1024 139.45 68.085 140.16 70.4552C140.716 72.3102 140.175 73.9889 138.975 75.3877C135.673 79.2409 132.083 82.8216 127.25 84.6827C124.562 85.7173 121.708 86.3439 118.899 87.0323C113.15 88.4392 107.405 89.8704 101.613 91.0838C97.3148 91.9835 93.0886 93.2457 88.6536 93.5569C86.5868 93.7024 85.1881 93.0595 84.2128 91.4178C82.9262 89.256 81.7031 87.0502 80.5823 84.7973C79.4049 82.4306 78.4348 79.96 77.2774 77.5821C75.5937 74.1191 75.5566 74.1375 77.131 69.9934ZM133.072 74.6216C135.084 71.7601 134.65 68.8988 132.276 67.1953C131.567 66.687 130.777 66.2612 129.971 65.9316C127.14 64.7763 124.215 64.2282 121.124 64.4242C114.972 64.8145 108.83 65.2128 102.718 66.0886C97.5944 66.8238 92.5945 68.0357 87.6515 69.5043C85.9789 70.0013 84.3526 70.7602 82.8255 71.6129C81.1553 72.5465 80.8795 73.6537 81.634 75.4338C82.2687 76.9328 83.153 78.3422 83.6439 79.8822C84.507 82.5818 86.0666 84.829 87.7425 87.0437C88.7641 88.3937 89.9938 88.8 91.6891 88.5635C96.0592 87.9572 100.333 86.9543 104.594 85.8514C109.34 84.6218 114.069 83.306 118.865 82.3079C122.636 81.5223 126.09 80.1289 129.217 77.9625C130.752 76.8973 132.065 75.507 133.072 74.6216Z" fill="#2490EB" fill-opacity="0.2"/>
        <path d="M55.9232 100.047C56.9644 100.776 57.2727 102.291 56.6102 103.429C55.8718 104.699 53.3958 105.13 52.2413 104.192C51.232 103.371 51.0802 101.87 51.8986 100.794C52.8965 99.485 54.6521 99.1583 55.9232 100.047Z" fill="#2490EB" fill-opacity="0.2"/>
        <path d="M48.5588 83.8935C49.6848 84.6811 49.9566 86.0465 49.2233 87.2192C48.3961 88.5407 46.5553 88.8406 45.2488 87.8646C44.3972 87.2306 44.3913 85.6645 45.2336 84.4178C45.9764 83.3181 47.4135 83.0914 48.5588 83.8935Z" fill="#2490EB" fill-opacity="0.2"/>
        <path d="M68.9343 98.0977C67.5373 97.1053 67.1338 95.8594 67.6851 94.9557C68.3022 93.943 69.4227 93.5261 70.6248 93.8885C70.982 93.9958 71.3374 94.1494 71.6529 94.3469C72.4511 94.8459 72.9448 95.5254 72.806 96.5332C72.6668 97.5523 71.8713 98.3773 70.7629 98.4033C70.0478 98.4195 69.3256 98.1692 68.9343 98.0977Z" fill="#2490EB" fill-opacity="0.2"/>
        <path d="M59.7656 91.0066C60.7644 91.734 60.8829 93.2611 60.0263 94.3543C59.2056 95.4011 57.8191 95.5799 56.6821 94.7883C55.5375 93.9902 55.2498 92.5037 56.0494 91.5186C56.925 90.4377 58.6546 90.1988 59.7656 91.0066Z" fill="#2490EB" fill-opacity="0.2"/>
        <path d="M68.7508 83.6026C69.8913 82.2347 71.6113 81.9576 72.6303 82.9768C73.4459 83.7936 73.3425 85.3467 72.4054 86.3423C71.3674 87.4435 69.8877 87.5313 68.7504 86.5577C67.8481 85.7848 67.8481 84.6859 68.7508 83.6026Z" fill="#2490EB" fill-opacity="0.2"/>
        <path d="M70.184 77.5639C69.4439 78.6295 68.0714 78.7674 66.902 77.8928C65.8245 77.087 65.4835 75.8038 66.1336 74.9977C67.1496 73.7366 69.0089 73.3596 70.112 74.1898C71.0025 74.8599 71.0347 76.3404 70.184 77.5639Z" fill="#2490EB" fill-opacity="0.2"/>
        <path d="M59.1988 82.2112C58.469 83.1979 56.8389 83.4246 55.824 82.6818C54.9741 82.0592 54.6867 80.4306 55.2836 79.6274C55.9458 78.7396 57.7703 78.3372 58.7037 78.8749C59.7213 79.462 59.9739 81.1654 59.1988 82.2112Z" fill="#2490EB" fill-opacity="0.2"/>
        <path d="M66.1331 107.695C65.4772 108.637 64.0846 109 63.195 108.465C62.1274 107.822 61.8034 106.201 62.5504 105.229C63.3286 104.216 64.7585 104.002 65.8626 104.73C66.7411 105.311 66.8626 106.65 66.1331 107.695Z" fill="#2490EB" fill-opacity="0.2"/>
    </g>
</svg>