<svg width="40" height="40" viewBox="0 0 40 40" fill="none" xmlns="http://www.w3.org/2000/svg">
<path fill-rule="evenodd" clip-rule="evenodd" d="M8.46332 18.7922C9.71595 17.3742 11.617 15.7497 14.0573 14.6441C12.7785 16.0621 12 17.9401 12 20C12 22.0599 12.7785 23.9379 14.0573 25.3559C11.617 24.2503 9.71595 22.6258 8.46332 21.2078C7.84557 20.5085 7.84557 19.4915 8.46332 18.7922ZM7.46404 17.9095C9.73598 15.3375 14.0542 12.0618 19.8812 12.0009C19.9207 12.0003 19.9603 12 20 12H20.0194H20.0465C25.9571 12 30.3355 15.3133 32.6289 17.9095C33.692 19.113 33.692 20.887 32.6289 22.0905C30.3355 24.6867 25.9571 28 20.0465 28H20.0194H20C19.9603 28 19.9207 27.9997 19.8812 27.9991C14.0542 27.9382 9.73598 24.6625 7.46405 22.0905C6.40089 20.887 6.40088 19.113 7.46404 17.9095ZM20.0189 13.3333C19.9785 13.3335 19.9381 13.3337 19.8977 13.3341C16.263 13.3887 13.3333 16.3523 13.3333 20C13.3333 23.6477 16.263 26.6113 19.8977 26.6659C19.9381 26.6663 19.9785 26.6665 20.0189 26.6667C23.6921 26.6565 26.6667 23.6756 26.6667 20C26.6667 16.3244 23.6921 13.3435 20.0189 13.3333ZM28 20C28 22.0939 27.1955 23.9999 25.8788 25.4259C28.3945 24.3196 30.3503 22.656 31.6295 21.2078C32.2473 20.5085 32.2473 19.4915 31.6295 18.7922C30.3503 17.344 28.3945 15.6804 25.8788 14.5741C27.1955 16.0001 28 17.9061 28 20ZM20.0464 24C22.2555 24 24.0464 22.2091 24.0464 20C24.0464 19.3825 23.9065 18.7977 23.6566 18.2755C23.4153 18.5171 23.0817 18.6667 22.7131 18.6667C21.9767 18.6667 21.3798 18.0697 21.3798 17.3333C21.3798 16.9648 21.5293 16.6312 21.771 16.3899C21.2488 16.1399 20.6639 16 20.0464 16C17.8373 16 16.0464 17.7909 16.0464 20C16.0464 22.2091 17.8373 24 20.0464 24Z" fill="#2490EB"/>
</svg>
