<svg width="40" height="40" viewBox="0 0 40 40" fill="none" xmlns="http://www.w3.org/2000/svg">
<path d="M28.8855 18.9038C30.0456 17.7437 30.3024 16.0399 29.627 14.7289C29.374 14.238 29.356 13.608 29.7465 13.2174L34.3052 8.65871C34.5039 8.46002 34.4999 8.13667 34.2963 7.94296L31.7244 5.49528C31.5278 5.30824 31.218 5.31207 31.0261 5.50393L26.5296 10.0005C26.139 10.391 25.509 10.3729 25.018 10.12C23.7071 9.4446 22.0033 9.70139 20.8432 10.8615C19.4257 12.2789 19.3568 14.5082 20.6893 15.8407C21.2484 16.3997 21.9652 16.7121 22.7138 16.7817C22.8465 16.7941 22.9529 16.9005 22.9653 17.0332C23.0349 17.7818 23.3473 18.4986 23.9063 19.0576C25.2388 20.3901 27.4681 20.3213 28.8855 18.9038Z" fill="#2490EB"/>
<path d="M12.1798 19.5248C11.0216 20.6831 10.7663 22.3854 11.4421 23.6958C11.6953 24.1867 11.7133 24.8167 11.3228 25.2072L6.85025 29.6798C6.65902 29.871 6.6545 30.1796 6.84005 30.3764L9.27637 32.9597C9.46976 33.1648 9.79435 33.1695 9.99367 32.9702L14.5397 28.4242C14.9303 28.0336 15.5603 28.0517 16.0511 28.3048C17.3616 28.9807 19.0639 28.7254 20.2221 27.5671C21.6374 26.1519 21.7046 23.9243 20.3721 22.5918C19.813 22.0328 19.0964 21.7201 18.3483 21.65C18.2157 21.6375 18.1094 21.5313 18.097 21.3987C18.0269 20.6506 17.7142 19.934 17.1551 19.3749C15.8226 18.0424 13.5951 18.1095 12.1798 19.5248Z" fill="#2490EB"/>
<path fill-rule="evenodd" clip-rule="evenodd" d="M12.8396 11.5062C13.1992 11.1466 13.7822 11.1466 14.1417 11.5062L15.0625 12.4269C15.422 12.7865 15.422 13.3695 15.0625 13.729C14.7029 14.0886 14.1199 14.0886 13.7604 13.729L12.8396 12.8083C12.4801 12.4487 12.4801 11.8658 12.8396 11.5062Z" fill="#2490EB"/>
<path fill-rule="evenodd" clip-rule="evenodd" d="M17.1736 10.3159C17.6821 10.3159 18.0943 10.7281 18.0943 11.2367L18.0943 12.1574C18.0943 12.6659 17.6821 13.0781 17.1736 13.0781C16.6651 13.0781 16.2529 12.6659 16.2529 12.1574L16.2529 11.2367C16.2529 10.7281 16.6651 10.3159 17.1736 10.3159Z" fill="#2490EB"/>
<path fill-rule="evenodd" clip-rule="evenodd" d="M11.6492 15.8403C11.6492 15.3318 12.0615 14.9196 12.57 14.9196L13.4907 14.9196C13.9992 14.9196 14.4114 15.3318 14.4114 15.8403C14.4114 16.3488 13.9992 16.761 13.4907 16.761L12.57 16.761C12.0615 16.761 11.6492 16.3488 11.6492 15.8403Z" fill="#2490EB"/>
<path fill-rule="evenodd" clip-rule="evenodd" d="M28.8735 27.5402C28.5139 27.8998 27.931 27.8998 27.5714 27.5402L26.6507 26.6194C26.2911 26.2599 26.2911 25.6769 26.6507 25.3173C27.0102 24.9578 27.5932 24.9578 27.9528 25.3173L28.8735 26.2381C29.2331 26.5976 29.2331 27.1806 28.8735 27.5402Z" fill="#2490EB"/>
<path fill-rule="evenodd" clip-rule="evenodd" d="M24.5395 28.7305C24.031 28.7305 23.6188 28.3182 23.6188 27.8097L23.6188 26.889C23.6188 26.3805 24.031 25.9683 24.5395 25.9683C25.048 25.9683 25.4602 26.3805 25.4602 26.889L25.4602 27.8097C25.4602 28.3182 25.048 28.7305 24.5395 28.7305Z" fill="#2490EB"/>
<path fill-rule="evenodd" clip-rule="evenodd" d="M30.0639 23.2061C30.0639 23.7146 29.6517 24.1268 29.1432 24.1268L28.2224 24.1268C27.7139 24.1268 27.3017 23.7146 27.3017 23.2061C27.3017 22.6976 27.7139 22.2854 28.2224 22.2854L29.1432 22.2854C29.6517 22.2853 30.0639 22.6976 30.0639 23.2061Z" fill="#2490EB"/>
</svg>
