<svg width="32" height="32" viewBox="0 0 32 32" fill="none" xmlns="http://www.w3.org/2000/svg">
<path d="M4 14.9072C4 8.88334 8.88334 4 14.9072 4C20.931 4 25.8144 8.88334 25.8144 14.9072C25.8144 20.931 20.931 25.8144 14.9072 25.8144C8.88334 25.8144 4 20.931 4 14.9072ZM14.9072 5.76873C9.86018 5.76873 5.76873 9.86018 5.76873 14.9072C5.76873 19.9542 9.86018 24.0456 14.9072 24.0456C19.9542 24.0456 24.0456 19.9542 24.0456 14.9072C24.0456 9.86018 19.9542 5.76873 14.9072 5.76873Z" fill="white"/>
<path d="M21.4875 21.4875C21.8329 21.1422 22.3929 21.1422 22.7382 21.4875L27.741 26.4903C28.0863 26.8357 28.0863 27.3956 27.741 27.741C27.3956 28.0863 26.8357 28.0863 26.4903 27.741L21.4875 22.7382C21.1422 22.3929 21.1422 21.8329 21.4875 21.4875Z" fill="white"/>
</svg>
