<svg width="24" height="24" viewBox="0 0 24 24" fill="none" xmlns="http://www.w3.org/2000/svg">
<path d="M16.5457 8.80582L15.5356 9.81591L16.0406 10.3211L15.5356 10.8261L17.5558 12.8463L18.0609 12.3413L18.566 12.8463L19.5762 11.8363L16.5457 8.80582Z" fill="#2490EB"/>
<path d="M17.6183 11.0358C17.4807 11.3355 17.2977 11.6199 17.0509 11.8667C16.5402 12.3773 15.8837 12.6425 15.2156 12.6858C15.8209 14.3338 15.3288 16.0275 14.2296 17.1268C14.0577 17.2987 13.8723 17.4497 13.6804 17.5878L5.93917 9.84634L5.43409 10.3514L10.7413 15.6587C10.3838 15.7124 10.0394 15.8713 9.76418 16.1464L9.48632 16.4243L8.46445 15.4023L8.96958 14.8971L5.93917 11.8668L4.4239 13.3819L7.45435 16.4124L7.95945 15.9073L8.98132 16.9293L7.50765 18.403H6.56676C5.77779 18.403 5.13824 19.0426 5.13824 19.8315L5.13828 21.2601H16.5668V19.8315C16.5668 19.8098 16.5613 19.7893 16.5603 19.7677L16.5654 19.7689C16.541 19.2128 16.7018 18.676 17.0237 18.2218C18.4497 16.2103 18.8091 13.4964 17.6183 11.0358ZM10.9899 18.1114C10.5955 18.1114 10.2757 17.7916 10.2757 17.3971C10.2757 17.0027 10.5955 16.6828 10.9899 16.6828C11.3844 16.6828 11.7042 17.0027 11.7042 17.3971C11.7042 17.7916 11.3844 18.1114 10.9899 18.1114Z" fill="#2490EB"/>
<path d="M17.5558 5.23975L14.5254 2.20926C14.2464 1.93025 13.7942 1.93025 13.5152 2.20926C12.3604 3.36405 9.22019 6.5044 8.14581 7.57882C8.02648 7.6981 7.95947 7.85994 7.95947 8.02873V9.52182C7.95942 9.69065 8.02652 9.85249 8.14581 9.97174L9.79331 11.6193C9.91264 11.7387 10.0746 11.8058 10.2433 11.8058H11.7364C11.9052 11.8058 12.0671 11.7388 12.1863 11.6193C12.6784 11.1274 12.2342 11.5716 13.5152 10.2905C14.352 11.1274 15.7088 11.1274 16.5457 10.2905C17.3825 9.45365 17.3825 8.0969 16.5457 7.26003L17.5529 6.2528C17.8318 5.97373 17.8348 5.51855 17.5558 5.23975ZM9.9797 8.77532L9.47461 8.27025L14.0202 3.72454L14.5253 4.22958L9.9797 8.77532ZM15.0304 9.48957C14.6359 9.48957 14.3162 9.16974 14.3162 8.77524C14.3162 8.38079 14.6359 8.06096 15.0305 8.06096C15.4249 8.06096 15.7447 8.38079 15.7447 8.77524C15.7447 9.16974 15.425 9.48957 15.0304 9.48957Z" fill="#2490EB"/>
</svg>
