<svg width="32" height="32" viewBox="0 0 32 32" fill="none" xmlns="http://www.w3.org/2000/svg">
<path d="M21.6004 5.0012C18.784 5.0012 16.924 6.54261 16 7.56379C15.076 6.54381 13.216 5.0012 10.3996 5.0012C6.5596 5.0012 4 8.58617 4 12.6022C4 15.6068 5.5096 21.4605 15.622 26.9048C15.7383 26.9673 15.8681 27 16 27C16.1319 27 16.2617 26.9673 16.378 26.9048C26.4904 21.4605 28 15.6068 28 12.6022C28 8.49224 25.366 5.0012 21.6004 5.0012ZM16 25.2839C11.1424 22.6033 5.5996 18.1381 5.5996 12.6022C5.5996 9.52185 7.4428 6.60643 10.3996 6.60643C12.6436 6.60643 14.4988 7.98647 15.3196 9.28703C15.634 9.7928 16.3684 9.7916 16.6804 9.28462C16.6972 9.25813 18.3652 6.60643 21.6004 6.60643C24.5788 6.60643 26.4004 9.55075 26.4004 12.601C26.4004 18.1381 20.8564 22.6033 16 25.2839Z" fill="white"/>
</svg>
